<svg xmlns="http://www.w3.org/2000/svg" width="762" height="770" viewBox="0 0 762 770">
  <g fill="none" fill-rule="evenodd">
    <polygon fill="#174489" points="0 508.186 761.095 508.186 761.095 .784 0 .784"/>
    <polyline fill="#FFF101" points="380.997 58.689 387.256 77.972 407.538 77.969 391.13 89.887 397.401 109.172 380.997 97.248 364.594 109.172 370.863 89.887 354.456 77.972 374.729 77.972 380.997 58.689"/>
    <polyline fill="#FFF101" points="297.114 81.551 303.74 100.716 324.013 100.334 307.834 112.556 314.463 131.719 297.84 120.103 281.664 132.334 287.568 112.936 270.939 101.331 291.213 100.954 297.114 81.551"/>
    <polyline fill="#FFF101" points="209.24 161.31 229.512 161.683 236.123 142.513 242.035 161.909 262.314 162.269 245.69 173.885 251.611 193.285 235.428 181.065 218.812 192.692 225.427 173.526 209.24 161.31"/>
    <polyline fill="#FFF101" points="186.132 246.088 206.409 246.175 212.75 226.915 218.934 246.228 239.211 246.305 222.755 258.156 228.947 277.471 212.593 265.478 196.145 277.329 202.491 258.075 186.132 246.088"/>
    <polyline fill="#FFF101" points="218.301 361.447 224.645 342.182 208.286 330.207 228.564 330.284 234.898 311.024 241.091 330.337 261.37 330.415 244.915 342.265 251.11 361.578 234.75 349.585 218.301 361.447"/>
    <polyline fill="#FFF101" points="279.8 422.293 286.023 402.999 269.59 391.118 289.866 391.075 296.083 371.779 302.392 391.049 322.671 390.996 306.291 402.95 312.607 422.219 296.174 410.34 279.8 422.293"/>
    <polyline fill="#FFF101" points="365.103 445.221 371.61 426.003 355.349 413.892 375.625 414.141 382.126 394.937 388.15 414.294 408.426 414.547 391.874 426.257 397.91 445.622 381.652 433.498 365.103 445.221"/>
    <polyline fill="#FFF101" points="480.905 422.552 464.452 410.697 448.103 422.708 454.277 403.39 437.81 391.559 458.091 391.454 464.259 372.136 470.616 391.397 490.892 391.298 474.548 403.29 480.905 422.552"/>
    <polyline fill="#FFF101" points="542.292 362.009 525.926 350.034 509.486 361.9 515.82 342.636 499.451 330.664 519.732 330.734 526.052 311.469 532.252 330.773 552.533 330.839 536.088 342.701 542.292 362.009"/>
    <polyline fill="#FFF101" points="575.141 247.097 558.727 259.014 565.001 278.305 548.591 266.38 532.191 278.294 538.46 259.014 522.055 247.097 542.335 247.097 548.591 227.817 554.861 247.097 575.141 247.097"/>
    <polyline fill="#FFF101" points="552.501 163.003 535.979 174.748 542.052 194.1 525.77 182.009 509.247 193.763 515.711 174.548 499.428 162.459 519.701 162.668 526.162 143.451 532.225 162.796 552.501 163.003"/>
    <polyline fill="#FFF101" points="492.986 100.865 476.506 112.685 482.67 132.003 466.338 119.992 449.865 131.819 456.243 112.568 439.903 100.561 460.179 100.679 466.558 81.429 472.705 100.749 492.986 100.865"/>
    <polyline fill="#1A1918" points="19.295 577.703 32.424 577.703 32.424 582.529 19.295 582.529 19.295 600.998 36.725 600.998 36.725 605.819 13.658 605.819 13.658 556.346 36.281 556.346 36.281 561.168 19.295 561.168 19.295 577.703"/>
    <path fill="#1A1918" d="M61.412 605.819L56.738 605.819 56.738 601.442C55.7 603.442 53.921 606.708 48.729 606.708 47.243 606.708 43.537 606.338 41.754 603.299 40.865 601.664 40.568 599.589 40.568 593.805L40.568 569.251 45.686 569.251 45.686 594.096C45.686 597.884 45.686 602.038 50.283 602.038 55.476 602.038 56.295 596.472 56.295 592.762L56.295 569.251 61.412 569.251 61.412 605.819M70.15 569.251L74.823 569.251 74.823 576.522C75.491 574.146 77.197 568.51 82.461 568.51 83.203 568.51 83.575 568.589 84.02 568.732L84.02 574.442C75.268 573.628 75.268 581.936 75.268 588.611L75.268 605.819 70.15 605.819 70.15 569.251M93.43 575.634C91.651 578.964 91.575 585.718 91.575 587.722 91.575 598.621 93.727 602.331 97.956 602.331 101.666 602.331 104.333 599.44 104.333 588.388 104.333 576.671 102.332 572.738 97.956 572.738 95.508 572.738 94.322 573.998 93.43 575.634zM109.972 587.866C109.972 599.219 106.708 606.708 97.881 606.708 88.756 606.708 85.94 598.251 85.94 587.722 85.94 582.229 86.978 568.365 97.956 568.365 108.637 568.365 109.972 581.191 109.972 587.866L109.972 587.866zM121.972 591.279C121.972 594.026 121.972 602.109 128.202 602.109 132.502 602.109 134.654 598.996 134.654 587.722 134.654 575.555 131.912 572.961 128.425 572.961 122.269 572.961 121.972 581.784 121.972 584.605L121.972 591.279zM116.854 569.251L121.599 569.251 121.599 575.184C122.269 573.257 123.827 568.589 129.538 568.589 140.068 568.589 140.292 583.79 140.292 587.351 140.292 595.142 138.661 606.486 129.316 606.486 124.418 606.486 122.862 603.665 121.972 602.109L121.972 618.209 116.854 618.209 116.854 569.251 116.854 569.251zM163.567 583.933C163.419 579.788 163.269 572.738 157.411 572.738 151.624 572.738 151.105 580.302 150.883 583.933L163.567 583.933zM150.732 588.167C150.732 592.02 150.732 602.331 158.003 602.331 162.527 602.331 163.715 597.584 164.308 594.99L168.834 596.175C167.347 602.183 164.901 606.708 157.557 606.708 149.4 606.708 145.323 600.77 145.323 588.013 145.323 578.894 147.99 568.365 157.485 568.365 169.13 568.365 169.202 582.381 169.202 588.167L150.732 588.167 150.732 588.167zM174.973 605.819L180.092 605.819 180.092 569.251 174.973 569.251 174.973 605.819zM174.751 562.65L180.315 562.65 180.315 556.346 174.751 556.346 174.751 562.65zM202.413 578.671C201.667 575.999 200.63 572.738 196.625 572.738 193.659 572.738 191.581 574.596 191.581 577.782 191.581 581.492 193.955 582.753 197.292 584.457 204.71 588.315 207.529 589.722 207.529 595.879 207.529 602.854 203.077 606.708 196.848 606.708 186.908 606.708 185.722 598.922 185.352 596.472L189.876 595.286C190.396 597.805 191.211 602.331 196.774 602.331 200.186 602.331 202.263 600.102 202.263 596.694 202.263 592.613 200.407 591.654 194.771 588.834 190.099 586.462 186.54 583.933 186.54 578.301 186.54 574.294 188.836 568.365 196.551 568.365 204.784 568.365 206.195 574.887 206.787 577.559L202.413 578.671"/>
    <polyline fill="#1A1918" points="212.856 556.346 217.975 556.346 217.975 587.199 228.064 569.251 233.551 569.251 225.469 582.753 234.663 605.819 228.583 605.819 222.203 587.944 217.975 594.545 217.975 605.819 212.856 605.819 212.856 556.346"/>
    <path fill="#1A1918" d="M243.034 595.953C243.034 596.991 243.034 602.331 247.853 602.331 250.227 602.331 252.228 600.848 253.195 598.922 254.677 596.1 254.974 593.207 254.974 587.278 249.411 587.13 243.034 586.976 243.034 595.953zM256.16 605.819C255.418 603.521 255.418 601.817 255.418 600.478 254.305 603.146 252.749 606.708 247.111 606.708 239.324 606.708 237.545 600.256 237.545 595.879 237.545 590.465 240.064 585.938 245.034 584.234 248.522 583.049 251.264 583.123 254.974 583.266 254.974 576.968 255.046 572.59 249.485 572.59 244.888 572.59 243.922 575.854 243.18 579.487L238.508 578.226C239.25 575.04 240.957 568.365 249.93 568.365 252.897 568.365 255.863 569.028 258.089 571.405 259.942 573.405 260.239 576.745 260.239 582.603L260.239 597.361C260.239 602.702 260.46 604.188 260.758 605.819L256.16 605.819 256.16 605.819zM284.028 562.65L289.589 562.65 289.589 556.346 284.028 556.346 284.028 562.65zM289.367 569.251L289.367 607.078C289.367 616.055 288.107 618.722 280.616 618.722L277.797 618.722 277.797 613.975 280.318 613.975C283.878 613.975 284.249 612.938 284.249 606.856L284.249 569.251 289.367 569.251 289.367 569.251zM303.75 575.634C301.971 578.964 301.894 585.718 301.894 587.722 301.894 598.621 304.045 602.331 308.274 602.331 311.982 602.331 314.653 599.44 314.653 588.388 314.653 576.671 312.651 572.738 308.274 572.738 305.827 572.738 304.641 573.998 303.75 575.634zM320.289 587.866C320.289 599.219 317.026 606.708 308.2 606.708 299.078 606.708 296.259 598.251 296.259 587.722 296.259 582.229 297.296 568.365 308.274 568.365 318.953 568.365 320.289 581.191 320.289 587.866L320.289 587.866zM327.171 569.251L331.844 569.251 331.844 576.522C332.514 574.146 334.218 568.51 339.484 568.51 340.226 568.51 340.598 568.589 341.042 568.732L341.042 574.442C332.291 573.628 332.291 581.936 332.291 588.611L332.291 605.819 327.171 605.819 327.171 569.251M361.283 582.529C361.283 579.117 360.168 572.961 354.977 572.961 349.339 572.961 348.598 580.598 348.598 587.13 348.598 588.982 348.598 595.509 350.305 599.065 351.342 601.145 352.679 602.331 355.126 602.331 357.054 602.331 358.612 601.442 359.724 599.737 361.206 597.661 361.283 594.842 361.283 592.391L361.283 582.529zM366.399 605.819L361.952 605.819 361.952 601.07C361.134 602.854 359.427 606.486 353.866 606.486 344.001 606.486 342.963 594.249 342.963 588.236 342.963 573.628 348.598 568.589 354.385 568.589 359.206 568.589 360.615 571.924 361.283 573.405L361.283 556.346 366.399 556.346 366.399 605.819 366.399 605.819zM380.252 591.877C380.252 593.581 380.252 597.584 382.036 599.959 382.627 600.77 384.037 602.331 386.188 602.331 391.675 602.331 392.935 595.286 392.935 587.278 392.935 577.856 391.53 572.961 386.781 572.961 383.962 572.961 380.252 575.04 380.252 585.568L380.252 591.877zM375.135 556.346L380.252 556.346 380.252 574.442C380.922 572.738 382.555 568.589 387.82 568.589 398.426 568.589 398.575 582.674 398.575 587.13 398.575 591.432 398.127 598.7 394.567 602.998 392.935 605.003 390.121 606.486 387.078 606.486 382.85 606.486 380.403 604.41 379.141 601.372L377.882 605.819 375.135 605.819 375.135 556.346 375.135 556.346zM405.456 569.251L410.129 569.251 410.129 576.522C410.795 574.146 412.502 568.51 417.767 568.51 418.512 568.51 418.881 568.589 419.326 568.732L419.326 574.442C410.574 573.628 410.574 581.936 410.574 588.611L410.574 605.819 405.456 605.819 405.456 569.251M443.425 605.819L438.748 605.819 438.748 601.442C437.71 603.442 435.929 606.708 430.737 606.708 429.254 606.708 425.544 606.338 423.77 603.299 422.879 601.664 422.58 599.589 422.58 593.805L422.58 569.251 427.696 569.251 427.696 594.096C427.696 597.884 427.696 602.038 432.295 602.038 437.488 602.038 438.303 596.472 438.303 592.762L438.303 569.251 443.425 569.251 443.425 605.819"/>
    <polyline fill="#1A1918" points="452.162 556.346 457.281 556.346 457.281 587.199 467.368 569.251 472.857 569.251 464.77 582.753 473.968 605.819 467.886 605.819 461.504 587.944 457.281 594.545 457.281 605.819 452.162 605.819 452.162 556.346"/>
    <path fill="#1A1918" d="M492.275 578.671C491.529 575.999 490.492 572.738 486.489 572.738 483.521 572.738 481.446 574.596 481.446 577.782 481.446 581.492 483.817 582.753 487.156 584.457 494.573 588.315 497.389 589.722 497.389 595.879 497.389 602.854 492.941 606.708 486.711 606.708 476.772 606.708 475.583 598.922 475.215 596.472L479.742 595.286C480.26 597.805 481.075 602.331 486.637 602.331 490.046 602.331 492.122 600.102 492.122 596.694 492.122 592.613 490.27 591.654 484.632 588.834 479.962 586.462 476.397 583.933 476.397 578.301 476.397 574.294 478.703 568.365 486.415 568.365 494.646 568.365 496.054 574.887 496.652 577.559L492.275 578.671M503.095 573.479L498.491 573.479 498.491 569.251 503.095 569.251 503.095 566.281C503.095 561.761 503.095 555.452 511.404 555.452 512.734 555.452 513.924 555.675 515.328 555.827L515.328 560.278C513.924 559.978 513.178 559.829 512.29 559.829 508.208 559.829 508.208 563.465 508.208 566.281L508.208 569.251 513.924 569.251 513.924 573.479 508.208 573.479 508.208 605.819 503.095 605.819 503.095 573.479M523.48 575.634C521.702 578.964 521.624 585.718 521.624 587.722 521.624 598.621 523.778 602.331 528.006 602.331 531.711 602.331 534.383 599.44 534.383 588.388 534.383 576.671 532.378 572.738 528.006 572.738 525.555 572.738 524.37 573.998 523.48 575.634zM540.021 587.866C540.021 599.219 536.755 606.708 527.932 606.708 518.807 606.708 515.987 598.251 515.987 587.722 515.987 582.229 517.029 568.365 528.006 568.365 538.687 568.365 540.021 581.191 540.021 587.866L540.021 587.866zM546.909 569.251L551.578 569.251 551.578 574.817C552.245 573.183 554.175 568.365 559.665 568.365 562.852 568.365 565.227 569.847 566.41 572.145 567.673 574.368 567.673 578.449 567.673 582.603L567.673 605.819 562.555 605.819 562.555 582.603C562.555 578.005 562.555 573.109 557.959 573.109 552.616 573.109 552.023 580.455 552.023 584.758L552.023 605.819 546.909 605.819 546.909 569.251M592.427 582.529C592.427 579.117 591.32 572.961 586.127 572.961 580.49 572.961 579.745 580.598 579.745 587.13 579.745 588.982 579.745 595.509 581.45 599.065 582.487 601.145 583.827 602.331 586.271 602.331 588.202 602.331 589.759 601.442 590.875 599.737 592.358 597.661 592.427 594.842 592.427 592.391L592.427 582.529zM597.549 605.819L593.094 605.819 593.094 601.07C592.279 602.854 590.574 606.486 585.011 606.486 575.145 606.486 574.108 594.249 574.108 588.236 574.108 573.628 579.745 568.589 585.531 568.589 590.352 568.589 591.764 571.924 592.427 573.405L592.427 556.346 597.549 556.346 597.549 605.819 597.549 605.819zM622.678 583.933C622.526 579.788 622.382 572.738 616.518 572.738 610.737 572.738 610.218 580.302 609.996 583.933L622.678 583.933zM609.843 588.167C609.843 592.02 609.843 602.331 617.12 602.331 621.64 602.331 622.827 597.584 623.419 594.99L627.94 596.175C626.458 602.183 624.017 606.708 616.67 606.708 608.509 606.708 604.429 600.77 604.429 588.013 604.429 578.894 607.102 568.365 616.596 568.365 628.241 568.365 628.315 582.381 628.315 588.167L609.843 588.167 609.843 588.167zM634.091 569.251L638.761 569.251 638.761 574.817C639.428 573.183 641.359 568.365 646.848 568.365 650.04 568.365 652.41 569.847 653.596 572.145 654.856 574.368 654.856 578.449 654.856 582.603L654.856 605.819 649.739 605.819 649.739 582.603C649.739 578.005 649.739 573.109 645.143 573.109 639.798 573.109 639.206 580.455 639.206 584.758L639.206 605.819 634.091 605.819 634.091 569.251M679.314 573.479L674.709 573.479 674.709 569.251 679.314 569.251 679.314 566.281C679.314 561.761 679.314 555.452 687.614 555.452 688.953 555.452 690.143 555.675 691.546 555.827L691.546 560.278C690.143 559.978 689.398 559.829 688.507 559.829 684.427 559.829 684.427 563.465 684.427 566.281L684.427 569.251 690.143 569.251 690.143 573.479 684.427 573.479 684.427 605.819 679.314 605.819 679.314 573.479M709.264 563.173C707.189 563.173 705.631 561.539 705.631 559.533 705.631 557.532 707.267 555.896 709.264 555.896 711.417 555.896 712.9 557.76 712.9 559.533 712.9 561.316 711.492 563.173 709.264 563.173zM699.699 575.634C697.919 578.964 697.842 585.718 697.842 587.722 697.842 598.621 699.996 602.331 704.224 602.331 707.929 602.331 710.602 599.44 710.602 588.388 710.602 576.671 708.596 572.738 704.224 572.738 701.773 572.738 700.583 573.998 699.699 575.634zM699.18 563.173C697.105 563.173 695.544 561.539 695.544 559.533 695.544 557.532 697.174 555.896 699.18 555.896 701.329 555.896 702.812 557.76 702.812 559.533 702.812 561.316 701.408 563.173 699.18 563.173zM716.239 587.866C716.239 599.219 712.974 606.708 704.15 606.708 695.026 606.708 692.205 598.251 692.205 587.722 692.205 582.229 693.242 568.365 704.224 568.365 714.901 568.365 716.239 581.191 716.239 587.866L716.239 587.866zM723.127 569.251L727.796 569.251 727.796 576.522C728.462 574.146 730.167 568.51 735.439 568.51 736.175 568.51 736.549 568.589 736.991 568.732L736.991 574.442C728.241 573.628 728.241 581.936 728.241 588.611L728.241 605.819 723.127 605.819 723.127 569.251"/>
    <polygon fill="#1A1918" points="33.749 680.899 38.867 680.899 38.867 631.427 33.749 631.427"/>
    <path fill="#1A1918" d="M51.249 671.038C51.249 672.076 51.249 677.411 56.068 677.411 58.442 677.411 60.444 675.93 61.412 674.002 62.894 671.182 63.19 668.287 63.19 662.358 57.627 662.21 51.249 662.057 51.249 671.038zM64.375 680.899C63.635 678.601 63.635 676.897 63.635 675.562 62.521 678.227 60.964 681.788 55.328 681.788 47.539 681.788 45.76 675.337 45.76 670.959 45.76 665.545 48.28 661.02 53.25 659.315 56.738 658.134 59.48 658.203 63.19 658.351 63.19 652.048 63.262 647.671 57.701 647.671 53.104 647.671 52.139 650.936 51.395 654.567L46.724 653.308C47.465 650.121 49.171 643.446 58.146 643.446 61.113 643.446 64.079 644.108 66.305 646.49 68.16 648.485 68.454 651.825 68.454 657.688L68.454 672.441C68.454 677.782 68.676 679.269 68.973 680.899L64.375 680.899 64.375 680.899zM76.672 644.331L81.345 644.331 81.345 649.899C82.014 648.263 83.941 643.446 89.43 643.446 92.621 643.446 94.996 644.929 96.181 647.225 97.441 649.453 97.441 653.53 97.441 657.688L97.441 680.899 92.323 680.899 92.323 657.688C92.323 653.086 92.323 648.194 87.726 648.194 82.385 648.194 81.792 655.535 81.792 659.838L81.792 680.899 76.672 680.899 76.672 644.331M122.202 657.611C122.202 654.202 121.088 648.041 115.895 648.041 110.26 648.041 109.515 655.683 109.515 662.21 109.515 664.063 109.515 670.593 111.224 674.15 112.262 676.23 113.597 677.411 116.043 677.411 117.973 677.411 119.53 676.522 120.641 674.817 122.127 672.743 122.202 669.922 122.202 667.472L122.202 657.611zM127.317 680.899L122.868 680.899 122.868 676.152C122.051 677.934 120.346 681.566 114.783 681.566 104.917 681.566 103.88 669.334 103.88 663.316 103.88 648.708 109.515 643.669 115.302 643.669 120.124 643.669 121.532 647.004 122.202 648.485L122.202 631.427 127.317 631.427 127.317 680.899 127.317 680.899zM149.631 653.756C148.886 651.084 147.849 647.819 143.844 647.819 140.877 647.819 138.8 649.677 138.8 652.862 138.8 656.572 141.174 657.833 144.512 659.537 151.929 663.395 154.748 664.807 154.748 670.959 154.748 677.934 150.296 681.788 144.067 681.788 134.127 681.788 132.941 674.002 132.571 671.553L137.095 670.371C137.614 672.891 138.43 677.411 143.993 677.411 147.403 677.411 149.481 675.187 149.481 671.775 149.481 667.698 147.626 666.735 141.989 663.914 137.318 661.543 133.758 659.018 133.758 653.386 133.758 649.376 136.056 643.446 143.77 643.446 152.005 643.446 153.413 649.969 154.006 652.64L149.631 653.756M165.191 666.957C165.191 668.662 165.191 672.669 166.972 675.041 167.564 675.855 168.975 677.411 171.125 677.411 176.613 677.411 177.874 670.371 177.874 662.358 177.874 652.941 176.467 648.041 171.72 648.041 168.901 648.041 165.191 650.121 165.191 660.653L165.191 666.957zM160.073 631.427L165.191 631.427 165.191 649.524C165.859 647.819 167.491 643.669 172.757 643.669 183.363 643.669 183.512 657.759 183.512 662.21 183.512 666.513 183.065 673.78 179.506 678.083 177.874 680.084 175.057 681.566 172.016 681.566 167.787 681.566 165.341 679.495 164.077 676.453L162.817 680.899 160.073 680.899 160.073 631.427 160.073 631.427zM190.99 644.331L196.925 669.555 203.226 644.331 207.827 644.331 197.443 684.387C195.958 690.023 193.955 694.105 189.208 694.105 187.876 694.105 187.059 693.882 186.243 693.659L186.243 689.055C187.429 689.426 188.022 689.579 188.839 689.579 190.841 689.579 191.509 689.055 193.067 682.604L194.4 677.12 185.725 644.331 190.99 644.331M216.27 656.128C216.27 659.171 216.937 664.21 221.461 664.21 225.763 664.21 226.432 659.981 226.432 655.906 226.432 651.158 225.17 647.819 221.461 647.819 216.937 647.819 216.27 652.862 216.27 656.128zM214.489 684.535C214.489 688.69 217.604 690.543 222.055 690.543 223.094 690.543 229.622 690.543 229.622 684.679 229.622 681.867 227.84 680.899 225.913 680.455 225.246 680.232 223.613 680.084 217.085 679.565 216.122 680.232 214.489 681.423 214.489 684.535zM234.069 643.372C230.881 643.224 229.547 643.669 229.325 647.671 231.104 650.19 231.845 653.308 231.845 656.421 231.845 663.765 227.618 668.588 221.166 668.588 219.384 668.588 218.493 668.287 217.68 667.922 215.084 668.885 215.084 671.038 215.084 671.403 215.084 674.817 218.199 675.041 225.246 675.562 227.766 675.785 234.813 676.3 234.813 684.313 234.813 692.988 227.173 694.92 221.536 694.92 213.155 694.92 209.299 690.691 209.299 685.721 209.299 680.825 212.71 678.894 214.046 678.157 210.558 676.078 210.337 672.965 210.337 671.997 210.337 667.843 213.523 666.29 214.637 665.693 213.523 664.508 211.004 661.914 211.004 655.906 211.004 648.708 214.933 643.446 221.314 643.446 224.059 643.446 225.469 644.331 226.356 644.929 226.506 642.778 226.801 638.1 234.069 638.768L234.069 643.372 234.069 643.372zM254.9 657.611C254.9 654.202 253.786 648.041 248.594 648.041 242.957 648.041 242.215 655.683 242.215 662.21 242.215 664.063 242.215 670.593 243.922 674.15 244.96 676.23 246.296 677.411 248.744 677.411 250.671 677.411 252.23 676.522 253.341 674.817 254.823 672.743 254.9 669.922 254.9 667.472L254.9 657.611zM260.016 680.899L255.567 680.899 255.567 676.152C254.75 677.934 253.045 681.566 247.485 681.566 237.619 681.566 236.582 669.334 236.582 663.316 236.582 648.708 242.215 643.669 248.003 643.669 252.823 643.669 254.233 647.004 254.9 648.485L254.9 631.427 260.016 631.427 260.016 680.899 260.016 680.899zM282.329 653.756C281.584 651.084 280.547 647.819 276.542 647.819 273.577 647.819 271.497 649.677 271.497 652.862 271.497 656.572 273.871 657.833 277.208 659.537 284.626 663.395 287.445 664.807 287.445 670.959 287.445 677.934 282.993 681.788 276.763 681.788 266.824 681.788 265.638 674.002 265.269 671.553L269.792 670.371C270.311 672.891 271.127 677.411 276.689 677.411 280.101 677.411 282.178 675.187 282.178 671.775 282.178 667.698 280.323 666.735 274.686 663.914 270.015 661.543 266.455 659.018 266.455 653.386 266.455 649.376 268.752 643.446 276.467 643.446 284.703 643.446 286.11 649.969 286.703 652.64L282.329 653.756M313.097 680.899L308.422 680.899 308.422 676.522C307.385 678.527 305.606 681.788 300.415 681.788 298.929 681.788 295.222 681.423 293.44 678.379 292.549 676.745 292.253 674.669 292.253 668.885L292.253 644.331 297.373 644.331 297.373 669.18C297.373 672.965 297.373 677.12 301.971 677.12 307.162 677.12 307.98 671.553 307.98 667.843L307.98 644.331 313.097 644.331 313.097 680.899M318.125 644.331L322.277 644.331 322.277 635.138 327.397 634.544 327.397 644.331 333.627 644.331 333.627 648.564 327.397 648.564 327.397 668.44C327.397 674.447 327.916 676.078 331.846 676.078 333.109 676.078 333.479 676.009 334.591 675.855L334.591 680.306C333.921 680.603 332.736 681.048 330.216 681.048 322.576 681.048 322.277 675.634 322.277 668.44L322.277 648.564 318.125 648.564 318.125 644.331"/>
    <polyline fill="#1A1918" points="335.101 644.331 340.444 644.331 346.746 674.525 352.829 644.331 357.871 644.331 349.268 680.899 343.705 680.899 335.101 644.331"/>
    <path fill="#1A1918" d="M378.629 659.018C378.481 654.868 378.33 647.819 372.473 647.819 366.687 647.819 366.167 655.383 365.945 659.018L378.629 659.018zM365.796 663.247C365.796 667.105 365.796 677.411 373.066 677.411 377.589 677.411 378.778 672.669 379.37 670.07L383.896 671.26C382.411 677.267 379.964 681.788 372.62 681.788 364.463 681.788 360.384 675.855 360.384 663.095 360.384 653.979 363.052 643.446 372.548 643.446 384.192 643.446 384.267 657.463 384.267 663.247L365.796 663.247 365.796 663.247zM405.909 656.197C405.391 652.492 404.498 647.819 399.902 647.819 395.527 647.819 393.818 651.673 393.818 662.654 393.818 671.706 394.636 677.411 399.902 677.411 403.313 677.411 405.168 674.971 405.909 669.033L410.731 669.626C409.914 674.817 408.431 681.788 399.976 681.788 390.113 681.788 388.183 672.669 388.183 663.47 388.183 653.53 390.113 643.446 399.976 643.446 406.798 643.446 409.914 648.338 410.731 655.313L405.909 656.197"/>
    <polyline fill="#1A1918" points="416.58 631.427 421.696 631.427 421.696 662.284 431.782 644.331 437.272 644.331 429.185 657.833 438.385 680.899 432.301 680.899 425.919 663.025 421.696 669.626 421.696 680.899 416.58 680.899 416.58 631.427"/>
    <polygon fill="#1A1918" points="443.117 680.899 448.229 680.899 448.229 631.427 443.117 631.427"/>
    <path fill="#1A1918" d="M456.983 680.899L462.097 680.899 462.097 644.331 456.983 644.331 456.983 680.899zM456.757 637.73L462.32 637.73 462.32 631.427 456.757 631.427 456.757 637.73zM470.843 644.331L475.511 644.331 475.511 649.899C476.183 648.263 478.111 643.446 483.6 643.446 486.79 643.446 489.162 644.929 490.347 647.225 491.608 649.453 491.608 653.53 491.608 657.688L491.608 680.899 486.489 680.899 486.489 657.688C486.489 653.086 486.489 648.194 481.89 648.194 476.55 648.194 475.958 655.535 475.958 659.838L475.958 680.899 470.843 680.899 470.843 644.331M504.277 656.128C504.277 659.171 504.944 664.21 509.468 664.21 513.771 664.21 514.439 659.981 514.439 655.906 514.439 651.158 513.178 647.819 509.468 647.819 504.944 647.819 504.277 652.862 504.277 656.128zM502.501 684.535C502.501 688.69 505.615 690.543 510.066 690.543 511.104 690.543 517.634 690.543 517.634 684.679 517.634 681.867 515.851 680.899 513.924 680.455 513.257 680.232 511.623 680.084 505.096 679.565 504.133 680.232 502.501 681.423 502.501 684.535zM522.082 643.372C518.895 643.224 517.555 643.669 517.333 647.671 519.117 650.19 519.853 653.308 519.853 656.421 519.853 663.765 515.629 668.588 509.176 668.588 507.394 668.588 506.505 668.287 505.689 667.922 503.095 668.885 503.095 671.038 503.095 671.403 503.095 674.817 506.212 675.041 513.257 675.562 515.777 675.785 522.818 676.3 522.818 684.313 522.818 692.988 515.184 694.92 509.547 694.92 501.164 694.92 497.31 690.691 497.31 685.721 497.31 680.825 500.719 678.894 502.057 678.157 498.57 676.078 498.347 672.965 498.347 671.997 498.347 667.843 501.535 666.29 502.646 665.693 501.535 664.508 499.014 661.914 499.014 655.906 499.014 648.708 502.947 643.446 509.325 643.446 512.067 643.446 513.479 644.331 514.369 644.929 514.517 642.778 514.814 638.1 522.082 638.768L522.082 643.372 522.082 643.372zM526.441 680.899L532.892 680.899 532.892 672.891 526.441 672.891 526.441 680.899zM526.441 652.344L532.892 652.344 532.892 644.331 526.441 644.331 526.441 652.344z"/>
    <polyline fill="#1A1918" points="563.366 652.788 576.493 652.788 576.493 657.611 563.366 657.611 563.366 676.078 580.792 676.078 580.792 680.899 557.725 680.899 557.725 631.427 580.346 631.427 580.346 636.249 563.366 636.249 563.366 652.788"/>
    <path fill="#1A1918" d="M605.484 680.899L600.806 680.899 600.806 676.522C599.769 678.527 597.99 681.788 592.797 681.788 591.316 681.788 587.606 681.423 585.827 678.379 584.937 676.745 584.641 674.669 584.641 668.885L584.641 644.331 589.754 644.331 589.754 669.18C589.754 672.965 589.754 677.12 594.353 677.12 599.546 677.12 600.361 671.553 600.361 667.843L600.361 644.331 605.484 644.331 605.484 680.899M614.216 644.331L618.89 644.331 618.89 651.603C619.556 649.231 621.261 643.595 626.532 643.595 627.268 643.595 627.644 643.669 628.084 643.817L628.084 649.524C619.334 648.708 619.334 657.016 619.334 663.691L619.334 680.899 614.216 680.899 614.216 644.331M637.5 650.714C635.722 654.049 635.644 660.798 635.644 662.803 635.644 673.701 637.793 677.411 642.027 677.411 645.732 677.411 648.404 674.525 648.404 663.47 648.404 651.751 646.399 647.819 642.027 647.819 639.576 647.819 638.386 649.078 637.5 650.714zM654.042 662.951C654.042 674.299 650.776 681.788 641.948 681.788 632.823 681.788 630.007 673.336 630.007 662.803 630.007 657.314 631.044 643.446 642.027 643.446 652.703 643.446 654.042 656.276 654.042 662.951L654.042 662.951zM666.043 666.36C666.043 669.111 666.043 677.189 672.273 677.189 676.576 677.189 678.724 674.076 678.724 662.803 678.724 650.635 675.982 648.041 672.496 648.041 666.339 648.041 666.043 656.865 666.043 659.685L666.043 666.36zM660.924 644.331L665.672 644.331 665.672 650.269C666.339 648.338 667.895 643.669 673.607 643.669 684.14 643.669 684.362 658.87 684.362 662.432 684.362 670.222 682.731 681.566 673.384 681.566 668.493 681.566 666.932 678.75 666.043 677.189L666.043 693.289 660.924 693.289 660.924 644.331 660.924 644.331zM694.877 671.038C694.877 672.076 694.877 677.411 699.699 677.411 702.076 677.411 704.071 675.93 705.039 674.002 706.522 671.182 706.823 668.287 706.823 662.358 701.254 662.21 694.877 662.057 694.877 671.038zM708.003 680.899C707.262 678.601 707.262 676.897 707.262 675.562 706.151 678.227 704.594 681.788 698.958 681.788 691.167 681.788 689.388 675.337 689.388 670.959 689.388 665.545 691.913 661.02 696.882 659.315 700.361 658.134 703.113 658.203 706.823 658.351 706.823 652.048 706.892 647.671 701.329 647.671 696.73 647.671 695.766 650.936 695.026 654.567L690.351 653.308C691.093 650.121 692.797 643.446 701.773 643.446 704.738 643.446 707.708 644.108 709.935 646.49 711.783 648.485 712.084 651.825 712.084 657.688L712.084 672.441C712.084 677.782 712.306 679.269 712.603 680.899L708.003 680.899 708.003 680.899zM15.474 755.984L20.595 755.984 20.595 719.412 15.474 719.412 15.474 755.984zM15.256 712.815L20.817 712.815 20.817 706.508 15.256 706.508 15.256 712.815zM29.338 719.412L34.014 719.412 34.014 724.979C34.68 723.345 36.607 718.527 42.096 718.527 45.287 718.527 47.661 720.01 48.847 722.306 50.109 724.535 50.109 728.615 50.109 732.769L50.109 755.984 44.989 755.984 44.989 732.769C44.989 728.171 44.989 723.274 40.391 723.274 35.053 723.274 34.458 730.615 34.458 734.918L34.458 755.984 29.338 755.984 29.338 719.412"/>
    <polyline fill="#1A1918" points="54.023 719.412 59.362 719.412 65.668 749.606 71.752 719.412 76.794 719.412 68.192 755.984 62.627 755.984 54.023 719.412"/>
    <path fill="#1A1918" d="M97.55 734.098C97.404 729.949 97.253 722.899 91.396 722.899 85.609 722.899 85.09 730.468 84.868 734.098L97.55 734.098zM84.72 738.332C84.72 742.185 84.72 752.496 91.989 752.496 96.512 752.496 97.7 747.749 98.295 745.15L102.818 746.342C101.334 752.348 98.886 756.873 91.543 756.873 83.385 756.873 79.307 750.935 79.307 738.18 79.307 729.059 81.976 718.527 91.471 718.527 103.115 718.527 103.187 732.548 103.187 738.332L84.72 738.332 84.72 738.332zM122.534 728.838C121.789 726.165 120.751 722.899 116.747 722.899 113.781 722.899 111.703 724.757 111.703 727.948 111.703 731.654 114.077 732.918 117.415 734.622 124.832 738.476 127.65 739.888 127.65 746.044 127.65 753.016 123.199 756.873 116.97 756.873 107.03 756.873 105.844 749.084 105.476 746.633L109.999 745.451C110.518 747.972 111.333 752.496 116.896 752.496 120.307 752.496 122.384 750.269 122.384 746.86 122.384 742.779 120.529 741.815 114.892 739 110.221 736.623 106.662 734.098 106.662 728.467 106.662 724.461 108.959 718.527 116.673 718.527 124.908 718.527 126.317 725.054 126.91 727.722L122.534 728.838M129.272 719.412L133.424 719.412 133.424 710.218 138.543 709.625 138.543 719.412 144.773 719.412 144.773 723.644 138.543 723.644 138.543 743.525C138.543 749.528 139.062 751.158 142.995 751.158 144.253 751.158 144.623 751.089 145.736 750.935L145.736 755.391C145.069 755.683 143.881 756.128 141.362 756.128 133.724 756.128 133.424 750.714 133.424 743.525L133.424 723.644 129.272 723.644 129.272 719.412M167.015 734.098C166.868 729.949 166.717 722.899 160.86 722.899 155.072 722.899 154.553 730.468 154.332 734.098L167.015 734.098zM154.183 738.332C154.183 742.185 154.183 752.496 161.453 752.496 165.975 752.496 167.164 747.749 167.759 745.15L172.282 746.342C170.798 752.348 168.349 756.873 161.006 756.873 152.849 756.873 148.771 750.935 148.771 738.18 148.771 729.059 151.438 718.527 160.934 718.527 172.578 718.527 172.652 732.548 172.652 738.332L154.183 738.332 154.183 738.332zM178.423 719.412L183.096 719.412 183.096 726.687C183.765 724.312 185.47 718.675 190.736 718.675 191.478 718.675 191.848 718.749 192.294 718.897L192.294 724.604C183.54 723.789 183.54 732.103 183.54 738.776L183.54 755.984 178.423 755.984 178.423 719.412M199.701 746.119C199.701 747.156 199.701 752.496 204.522 752.496 206.895 752.496 208.897 751.014 209.864 749.084 211.346 746.267 211.642 743.372 211.642 737.438 206.081 737.295 199.701 737.141 199.701 746.119zM212.83 755.984C212.087 753.686 212.087 751.977 212.087 750.644 210.976 753.312 209.418 756.873 203.78 756.873 195.991 756.873 194.212 750.422 194.212 746.044 194.212 740.63 196.735 736.104 201.703 734.399 205.19 733.214 207.932 733.284 211.642 733.431 211.642 727.133 211.716 722.756 206.153 722.756 201.557 722.756 200.593 726.016 199.847 729.652L195.178 728.392C195.919 725.201 197.624 718.527 206.601 718.527 209.564 718.527 212.534 719.19 214.757 721.57 216.612 723.566 216.909 726.91 216.909 732.769L216.909 747.527C216.909 752.863 217.13 754.354 217.428 755.984L212.83 755.984 212.83 755.984zM225.126 719.412L229.8 719.412 229.8 726.687C230.467 724.312 232.174 718.675 237.438 718.675 238.179 718.675 238.551 718.749 238.996 718.897L238.996 724.604C230.244 723.789 230.244 732.103 230.244 738.776L230.244 755.984 225.126 755.984 225.126 719.412M258.56 755.984L263.68 755.984 263.68 719.412 258.56 719.412 258.56 755.984zM258.337 712.815L263.903 712.815 263.903 706.508 258.337 706.508 258.337 712.815z"/>
    <polygon fill="#1A1918" points="288.216 755.984 293.334 755.984 293.334 706.508 288.216 706.508"/>
    <path fill="#1A1918" d="M305.713 746.119C305.713 747.156 305.713 752.496 310.533 752.496 312.907 752.496 314.91 751.014 315.875 749.084 317.357 746.267 317.654 743.372 317.654 737.438 312.091 737.295 305.713 737.141 305.713 746.119zM318.84 755.984C318.099 753.686 318.099 751.977 318.099 750.644 316.984 753.312 315.428 756.873 309.791 756.873 302.003 756.873 300.225 750.422 300.225 746.044 300.225 740.63 302.744 736.104 307.714 734.399 311.2 733.214 313.944 733.284 317.654 733.431 317.654 727.133 317.726 722.756 312.166 722.756 307.568 722.756 306.6 726.016 305.859 729.652L301.188 728.392C301.929 725.201 303.636 718.527 312.61 718.527 315.577 718.527 318.543 719.19 320.769 721.57 322.622 723.566 322.917 726.91 322.917 732.769L322.917 747.527C322.917 752.863 323.141 754.354 323.437 755.984L318.84 755.984 318.84 755.984zM331.138 719.412L335.812 719.412 335.812 724.979C336.48 723.345 338.408 718.527 343.896 718.527 347.088 718.527 349.462 720.01 350.647 722.306 351.907 724.535 351.907 728.615 351.907 732.769L351.907 755.984 346.789 755.984 346.789 732.769C346.789 728.171 346.789 723.274 342.192 723.274 336.853 723.274 336.259 730.615 336.259 734.918L336.259 755.984 331.138 755.984 331.138 719.412M376.668 732.691C376.668 729.282 375.554 723.121 370.361 723.121 364.726 723.121 363.981 730.763 363.981 737.295 363.981 739.143 363.981 745.674 365.69 749.232 366.728 751.311 368.063 752.496 370.509 752.496 372.438 752.496 373.997 751.602 375.109 749.898 376.593 747.823 376.668 745.007 376.668 742.557L376.668 732.691zM381.783 755.984L377.335 755.984 377.335 751.237C376.517 753.016 374.812 756.651 369.249 756.651 359.383 756.651 358.346 744.414 358.346 738.402 358.346 723.789 363.981 718.749 369.768 718.749 374.591 718.749 375.998 722.084 376.668 723.566L376.668 706.508 381.783 706.508 381.783 755.984 381.783 755.984zM404.095 728.838C403.353 726.165 402.313 722.899 398.308 722.899 395.342 722.899 393.264 724.757 393.264 727.948 393.264 731.654 395.638 732.918 398.975 734.622 406.392 738.476 409.211 739.888 409.211 746.044 409.211 753.016 404.76 756.873 398.531 756.873 388.591 756.873 387.405 749.084 387.035 746.633L391.559 745.451C392.078 747.972 392.894 752.496 398.457 752.496 401.868 752.496 403.945 750.269 403.945 746.86 403.945 742.779 402.09 741.815 396.454 739 391.782 736.623 388.223 734.098 388.223 728.467 388.223 724.461 390.52 718.527 398.234 718.527 406.467 718.527 407.878 725.054 408.471 727.722L404.095 728.838M419.657 742.039C419.657 743.747 419.657 747.749 421.441 750.121 422.032 750.935 423.439 752.496 425.588 752.496 431.08 752.496 432.339 745.451 432.339 737.438 432.339 728.022 430.933 723.121 426.186 723.121 423.367 723.121 419.657 725.201 419.657 735.734L419.657 742.039zM414.541 706.508L419.657 706.508 419.657 724.604C420.327 722.899 421.955 718.749 427.223 718.749 437.832 718.749 437.975 732.839 437.975 737.295 437.975 741.593 437.531 748.86 433.974 753.163 432.339 755.169 429.521 756.651 426.479 756.651 422.253 756.651 419.806 754.576 418.545 751.533L417.286 755.984 414.541 755.984 414.541 706.508 414.541 706.508zM445.457 719.412L451.386 744.637 457.694 719.412 462.294 719.412 451.91 759.468C450.426 765.109 448.421 769.185 443.674 769.185 442.339 769.185 441.525 768.963 440.709 768.741L440.709 764.14C441.895 764.508 442.493 764.66 443.307 764.66 445.309 764.66 445.98 764.14 447.533 757.689L448.866 752.2 440.187 719.412 445.457 719.412M470.734 731.208C470.734 734.252 471.401 739.292 475.926 739.292 480.229 739.292 480.897 735.066 480.897 730.987 480.897 726.239 479.636 722.899 475.926 722.899 471.401 722.899 470.734 727.948 470.734 731.208zM468.959 759.615C468.959 763.77 472.068 765.623 476.523 765.623 477.562 765.623 484.087 765.623 484.087 759.763 484.087 756.947 482.309 755.984 480.381 755.535 479.71 755.312 478.076 755.169 471.554 754.645 470.585 755.312 468.959 756.503 468.959 759.615zM488.539 718.453C485.347 718.305 484.013 718.749 483.791 722.756 485.575 725.275 486.311 728.392 486.311 731.506 486.311 738.847 482.086 743.669 475.634 743.669 473.85 743.669 472.961 743.372 472.146 743.002 469.547 743.97 469.547 746.119 469.547 746.489 469.547 749.898 472.669 750.121 479.71 750.644 482.23 750.866 489.275 751.381 489.275 759.393 489.275 768.074 481.641 770 476 770 467.622 770 463.768 765.776 463.768 760.805 463.768 755.905 467.177 753.979 468.51 753.238 465.027 751.158 464.805 748.046 464.805 747.082 464.805 742.928 467.992 741.371 469.103 740.773 467.992 739.593 465.472 736.994 465.472 730.987 465.472 723.789 469.404 718.527 475.778 718.527 478.52 718.527 479.932 719.412 480.827 720.01 480.971 717.86 481.271 713.182 488.539 713.853L488.539 718.453 488.539 718.453zM509.36 732.691C509.36 729.282 508.251 723.121 503.06 723.121 497.423 723.121 496.678 730.763 496.678 737.295 496.678 739.143 496.678 745.674 498.382 749.232 499.419 751.311 500.758 752.496 503.208 752.496 505.135 752.496 506.696 751.602 507.807 749.898 509.29 747.823 509.36 745.007 509.36 742.557L509.36 732.691zM514.482 755.984L510.031 755.984 510.031 751.237C509.216 753.016 507.507 756.651 501.949 756.651 492.078 756.651 491.041 744.414 491.041 738.402 491.041 723.789 496.678 718.749 502.462 718.749 507.284 718.749 508.698 722.084 509.36 723.566L509.36 706.508 514.482 706.508 514.482 755.984 514.482 755.984zM536.794 728.838C536.049 726.165 535.012 722.899 531.01 722.899 528.041 722.899 525.965 724.757 525.965 727.948 525.965 731.654 528.337 732.918 531.676 734.622 539.092 738.476 541.913 739.888 541.913 746.044 541.913 753.016 537.461 756.873 531.231 756.873 521.292 756.873 520.107 749.084 519.735 746.633L524.261 745.451C524.775 747.972 525.595 752.496 531.157 752.496 534.566 752.496 536.646 750.269 536.646 746.86 536.646 742.779 534.79 741.815 529.152 739 524.483 736.623 520.917 734.098 520.917 728.467 520.917 724.461 523.223 718.527 530.935 718.527 539.167 718.527 540.574 725.054 541.171 727.722L536.794 728.838M552.876 725.794C551.094 729.129 551.02 735.883 551.02 737.883 551.02 748.786 553.168 752.496 557.402 752.496 561.104 752.496 563.776 749.606 563.776 738.555 563.776 726.831 561.775 722.899 557.402 722.899 554.953 722.899 553.762 724.16 552.876 725.794zM569.414 738.031C569.414 749.384 566.152 756.873 557.325 756.873 548.199 756.873 545.382 748.416 545.382 737.883 545.382 732.394 546.424 718.527 557.402 718.527 568.079 718.527 569.414 731.357 569.414 738.031L569.414 738.031zM576.3 719.412L580.974 719.412 580.974 725.275C581.642 723.345 583.124 718.527 588.91 718.527 594.917 718.527 595.736 723.868 596.029 725.72 596.551 723.719 597.955 718.527 603.962 718.527 606.634 718.527 609.084 719.786 610.568 722.01 612.198 724.461 612.272 728.171 612.272 731.881L612.272 755.984 607.158 755.984 607.158 732.103C607.158 725.572 605.676 723.274 602.48 723.274 596.848 723.274 596.848 731.728 596.848 736.026L596.848 755.984 591.724 755.984 591.724 733.061C591.724 727.577 591.503 723.274 587.352 723.274 582.235 723.274 581.419 729.282 581.419 732.691L581.419 755.984 576.3 755.984 576.3 719.412M620.485 719.412L625.155 719.412 625.155 726.687C625.826 724.312 627.53 718.675 632.797 718.675 633.538 718.675 633.913 718.749 634.353 718.897L634.353 724.604C625.604 723.789 625.604 732.103 625.604 738.776L625.604 755.984 620.485 755.984 620.485 719.412M651.111 708.883C651.111 707.327 649.847 706.062 648.295 706.062 646.735 706.062 645.474 707.327 645.474 708.883 645.474 710.588 646.804 711.778 648.295 711.778 649.778 711.778 651.111 710.588 651.111 708.883zM642.057 708.883C642.057 705.471 644.876 702.728 648.295 702.728 651.705 702.728 654.525 705.471 654.525 708.883 654.525 712.667 651.403 715.113 648.295 715.113 645.177 715.113 642.057 712.667 642.057 708.883zM641.765 746.119C641.765 747.156 641.765 752.496 646.586 752.496 648.961 752.496 650.958 751.014 651.926 749.084 653.409 746.267 653.71 743.372 653.71 737.438 648.142 737.295 641.765 737.141 641.765 746.119zM654.891 755.984C654.15 753.686 654.15 751.977 654.15 750.644 653.039 753.312 651.482 756.873 645.845 756.873 638.055 756.873 636.276 750.422 636.276 746.044 636.276 740.63 638.8 736.104 643.77 734.399 647.249 733.214 650 733.284 653.71 733.431 653.71 727.133 653.78 722.756 648.216 722.756 643.617 722.756 642.654 726.016 641.914 729.652L637.239 728.392C637.981 725.201 639.689 718.527 648.661 718.527 651.63 718.527 654.594 719.19 656.822 721.57 658.679 723.566 658.971 726.91 658.971 732.769L658.971 747.527C658.971 752.863 659.194 754.354 659.495 755.984L654.891 755.984 654.891 755.984zM683.651 732.691C683.651 729.282 682.543 723.121 677.352 723.121 671.714 723.121 670.97 730.763 670.97 737.295 670.97 739.143 670.97 745.674 672.674 749.232 673.711 751.311 675.05 752.496 677.496 752.496 679.427 752.496 680.983 751.602 682.099 749.898 683.582 747.823 683.651 745.007 683.651 742.557L683.651 732.691zM688.774 755.984L684.318 755.984 684.318 751.237C683.503 753.016 681.798 756.651 676.236 756.651 666.37 756.651 665.333 744.414 665.333 738.402 665.333 723.789 670.97 718.749 676.754 718.749 681.576 718.749 682.988 722.084 683.651 723.566L683.651 706.508 688.774 706.508 688.774 755.984 688.774 755.984zM713.903 734.098C713.75 729.949 713.606 722.899 707.742 722.899 701.962 722.899 701.443 730.468 701.22 734.098L713.903 734.098zM701.067 738.332C701.067 742.185 701.067 752.496 708.339 752.496 712.864 752.496 714.05 747.749 714.643 745.15L719.164 746.342C717.682 752.348 715.241 756.873 707.895 756.873 699.734 756.873 695.653 750.935 695.653 738.18 695.653 729.059 698.326 718.527 707.821 718.527 719.465 718.527 719.539 732.548 719.539 738.332L701.067 738.332 701.067 738.332zM725.315 719.412L729.985 719.412 729.985 724.979C730.652 723.345 732.583 718.527 738.072 718.527 741.258 718.527 743.634 720.01 744.816 722.306 746.076 724.535 746.076 728.615 746.076 732.769L746.076 755.984 740.962 755.984 740.962 732.769C740.962 728.171 740.962 723.274 736.367 723.274 731.022 723.274 730.429 730.615 730.429 734.918L730.429 755.984 725.315 755.984 725.315 719.412"/>
  </g>
</svg>
