<svg display="none" width="0" height="0" version="1.1" xmlns="http://www.w3.org/2000/svg" xmlns:xlink="http://www.w3.org/1999/xlink">
  <defs>
    <symbol id="icon-facebook-with-circle" viewBox="0 0 1024 1024">
      <title>facebook-with-circle</title>
      <path d="M512,0C229.227,0,0,229.227,0,512s229.227,512,512,512s512-229.227,512-512S794.773,0,512,0z M633.28,353.813h-76.96
      c-9.12,0-19.253,12-19.253,27.947v55.573h96.267l-14.56,79.253h-81.707v237.92H446.24v-237.92h-82.4v-79.253h82.4V390.72
      c0-66.88,46.4-121.227,110.08-121.227h76.96V353.813z"/>
    </symbol>

    <symbol id="icon-paper-plane" viewBox="0 0 1024 1024">
      <title>paper-plane</title>
      <path class="path1" d="M954.368 134.861c-17.613 6.195-886.835 312.525-903.987 318.566-14.541 5.12-17.766 17.664-0.512 24.525 20.531 8.243 194.355 77.875 194.355 77.875v0l115.2 46.131c0 0 554.906-407.45 562.381-412.979 7.578-5.53 16.282 4.864 10.803 10.803-5.478 5.99-402.995 435.866-402.995 435.866v0.102l-23.142 25.754 30.669 16.486c0 0 238.080 128.205 255.078 137.318 14.899 7.987 34.202 1.382 38.502-17.101 5.069-21.811 145.664-627.763 148.787-641.28 4.045-17.562-7.578-28.262-25.139-22.067zM358.4 878.694c0 12.595 7.117 16.128 16.947 7.219 12.851-11.725 145.92-131.123 145.92-131.123l-162.867-84.173v208.077z"></path>
    </symbol>

    <symbol id="icon-phone" viewBox="0 0 1024 1024">
      <title>phone</title>
      <path class="path1" d="M574.925 574.925c-81.050 80.998-174.95 158.515-212.070 121.395-53.094-53.094-85.862-99.379-203.008-5.222-117.094 94.106-27.136 156.877 24.32 208.282 59.392 59.392 280.781 3.174 499.61-215.603 218.778-218.829 274.842-440.218 215.398-499.61-51.456-51.507-113.92-141.414-208.026-24.32-94.157 117.094-47.923 149.862 5.274 203.008 36.966 37.12-40.499 131.021-121.498 212.070z"></path>
    </symbol>

  </defs>
</svg>
