<?xml version="1.0" encoding="utf-8"?>
<!-- Generator: Adobe Illustrator 17.0.0, SVG Export Plug-In . SVG Version: 6.00 Build 0)  -->
<!DOCTYPE svg PUBLIC "-//W3C//DTD SVG 1.1//EN" "http://www.w3.org/Graphics/SVG/1.1/DTD/svg11.dtd">
<svg version="1.1" xmlns="http://www.w3.org/2000/svg" xmlns:xlink="http://www.w3.org/1999/xlink" x="0px" y="0px"
	 width="283.465px" height="283.465px" viewBox="0 0 283.465 283.465" enable-background="new 0 0 283.465 283.465"
	 xml:space="preserve">
<g id="Elements">
	<g id="Goat_2">
		<path id="Left_Leg" fill-rule="evenodd" clip-rule="evenodd" fill="#292424" d="M65.049,117.907c0,0,19.829-2.659,20.404,2.538
			c0.576,5.196-2.771,19.391-4.389,20.75l0.793,0.767c0,0,8.515,4.076,11.285,4.199c0,0,4.936-4.73,9.982-4.101
			c0,0-1.729,6.693-5.897,9.734l-0.055,0.436c0,0-0.058,2.157-6.334-0.121l-14.726-2.51c0,0-6.937,0.247-5.402-5.8
			c1.536-6.047,4.689-11.665-9.159-14.07"/>
		<path id="Main_Body" fill-rule="evenodd" clip-rule="evenodd" fill="#292424" d="M37.563,126.438
			c0.875,1.125-0.195,9.47,0.044,12.259c0.337,3.933,1.461,8.426-0.111,11.348c-1.574,2.922-5.619,8.203-5.619,8.203
			s1.124,15.056,0.45,18.988c0,0-0.561,3.373,3.034,3.484c0,0,6.629,2.807,11.686,1.909c0,0,0-4.493-5.842-7.303
			c0,0-1.573-7.866,0-14.944c0,0,15.055-8.987,19.663-27.528c4.607-18.539,12.248-17.753,17.978-23.034
			c5.73-5.28,15.393-18.764,12.472-26.179c-0.663-1.682-1.281-3.246-1.847-4.671c0.625-1.177,1.267-2.291,0.468-3.651
			c-1.749-2.98-3.116-4.712-3.116-4.712s2.36-5.281-3.539-6.798c-5.84-1.502-4.142-0.034-6.562-1.914
			c-0.029-0.036-0.062-0.071-0.09-0.107l-1.603-3.848c-0.044-1.361,0.451-2.849,1.729-4.507c1.127-1.463,1.735-0.336,1.735-0.336
			c0.354,2.12,1.823,3.989,1.823,3.989c2.547,3.648,8.024,6.652,8.024,6.652c-1.813-1.144-5.367-5.886-5.367-5.886
			c4.86,1.319,8.957,7.405,8.957,7.405s-3.711-6.392-6.348-7.57c-2.64-1.18-3.036-3.208-3.036-3.208
			c1.503,2.13,2.382,1.724,5.436,3.719c3.052,1.997,3.49,3.936,3.49,3.936c-0.254-5.337-3.997-5.305-6.561-8.203
			c-2.56-2.896,2.463-4.26,2.463-4.26c1.927-0.487,2.04-2.631,2.04-2.631c0.431-0.597-0.051-0.99-0.051-0.99
			c1.184-0.673,1.267-1.549,0.839-1.984c-0.428-0.436-1.176-2.587-1.176-2.587c-1.1-1.617-6.749-2.487-6.749-2.487l-9.17-2.298
			c0,0-1.773-2.943-3.94-2.859c0,0,1.167-2.667,0.5-4.667c0,0-4.083,1.833-4.19,5.843c-6.773-1.96-9.218,1.416-9.218,1.416
			c0.536-0.383,2.063,0.102,2.063,0.102c-9.838,5.015-8.358,12.714-8.358,12.714c0.406-1.896,2.278-1.061,2.278-1.061
			c0.378,3.233-6.416,6.254-6.416,6.254c0.894,0.581,4.513,0.391,4.513,0.391c-0.438,3.021-4.265,5.682-4.265,5.682
			c1.408,0.278,3.5-0.396,3.5-0.396c-0.297,1.142-5.801,3.888-5.246,7.778c0.556,3.888,4.408,2.8,4.408,2.8
			c-1.121-0.378-1.033-1.05-0.998-2.522c0.031-1.35,4.307-2.682,4.74,0.474c0.008,0.254,0.021,0.514,0.03,0.77
			c-0.003,0.06,0.004,0.109-0.001,0.172c-0.349,4.351-6.377,8.441-6.377,8.441c1.865-0.473,5.304-0.972,4.018,0.958
			c-1.285,1.929-1.38,3.297,0.259,5.03c1.638,1.733,2.867-0.646,2.867-0.646c-0.607,3.673-3.167,4.14-4.197,5.089
			c-1.031,0.951-0.485,1.529,0.554,1.886c1.04,0.358,2.389-1.816,2.389-1.816c0.7-0.802,1.346-1.15,1.902-1.253
			c0.438,4.698,1.539,10.843-7.267,17.322c-8.933,6.573-9.775,12.135-9.775,12.135s-3.693,2.734-5.354-0.83l0.342,1.661
			c0,0-5.763-4.2-4.395-7.862c0,0-2.245,1.368-1.416,4.737c0,0-0.928-0.341-0.928-0.879c0,0-0.537,3.027,2.1,6.348
			c0,0-1.074-0.245-1.465-0.879c0,0,1.074,5.47,7.812,6.983c0,0-0.684,0.341-1.416,0.097
			C32.158,126.106,33.578,127.818,37.563,126.438z"/>
		<path id="Ear" fill-rule="evenodd" clip-rule="evenodd" fill="#292424" d="M60.445,39.953c0,0-1.119-1.21-1.477-3.008
			c-0.356-1.796-2.751-3.248-3.788-3.679c-1.037-0.43-3.567-1.695-4.511-1.688c0,0-1.53,1.173-0.516,3.47
			c1.016,2.299,3.305,4.296,5.334,4.937c2.027,0.64,2.832,0.074,3.766,1.048"/>
		<path id="Eye" fill-rule="evenodd" clip-rule="evenodd" fill="#FFFFFF" d="M73.173,40.101c0,0-1.515-0.578-2.41-1.939
			c0,0-0.632-0.503-3.001,2.71c0,0,1.741,1.464,3.402-0.55C71.164,40.322,72.02,39.535,73.173,40.101z"/>
		<path id="Juver" fill-rule="evenodd" clip-rule="evenodd" fill="#292424" d="M55.93,126.161l-5.736,20.683
			c4.67,2.176,9.211,0.691,9.211,0.691s-0.238,2.895,1.282,2.564c1.966-0.428,1.538-3.59,1.538-3.59
			c1.202-0.381,2.842-2.707,2.842-2.707s0.398,2.527,1.944,1.682c1.881-1.025-0.085-3.846-0.085-3.846
			c8.273-11.496,0.506-20.327,0.506-20.327L55.93,126.161z"/>
		<path id="Left_Arm" fill-rule="evenodd" clip-rule="evenodd" fill="#292424" d="M64.268,87.391c0,0,9.026,6.446,12.691,7.65
			c0,0-1.426,1.021-2.158,0.977c0,0,6.838,0.998,10.69,0.586c3.853-0.412,9.947-0.767,9.947-0.767s4.455-0.343,6.451,0.094
			c1.995,0.435,2.262,2.021,4.142,0.969c0,0,6.857-2.679,8.111-8.914c0,0-5.177-1.541-9.46,1.518c0,0-6.337-1.431-9.135-1.305
			c-2.794,0.126-12.206-0.705-12.206-0.705l-0.302,0.027"/>
		<path id="Horn_1_" fill-rule="evenodd" clip-rule="evenodd" fill="#292424" d="M67.478,35.556c0,0-2.468-5.071-4.892-7.279
			c-2.425-2.208-9.626-3.719-9.626-3.719s-0.796-0.156-0.176,0.417c0.416,0.388,3.392,1.667,5.734,3.124
			c1.16,0.723,2.433,2.606,2.864,3.272c1.398,2.153,1.415,4.024,1.415,4.024L67.478,35.556z"/>
		<path id="Horn" fill-rule="evenodd" clip-rule="evenodd" fill="#292424" d="M63.965,34.845c0,0-4.765-5.04-8.423-6.737
			c-3.657-1.697-12.662-0.816-12.662-0.816s-0.991,0.11-0.053,0.555c0.633,0.3,4.594,0.706,7.878,1.552
			c1.629,0.419,3.814,2.161,4.566,2.782c2.436,2.012,3.144,4.199,3.144,4.199L63.965,34.845z"/>
	</g>
	<g id="Goat_1">
		<path fill-rule="evenodd" clip-rule="evenodd" fill="#292424" d="M219.494,117.907c0,0-19.828-2.659-20.403,2.538
			c-0.577,5.196,2.771,19.391,4.389,20.75l-0.793,0.767c0,0-8.515,4.076-11.286,4.199c0,0-4.936-4.73-9.982-4.101
			c0,0,1.73,6.693,5.898,9.734l0.055,0.436c0,0,0.058,2.157,6.334-0.121l14.726-2.51c0,0,6.936,0.247,5.401-5.8
			c-1.535-6.047-4.688-11.665,9.16-14.07"/>
		<path id="Main_Body_1_" fill-rule="evenodd" clip-rule="evenodd" fill="#292424" d="M246.438,126.438
			c-0.875,1.125,0.195,9.47-0.045,12.259c-0.336,3.933-1.461,8.426,0.111,11.348c1.574,2.922,5.619,8.203,5.619,8.203
			s-1.123,15.056-0.449,18.988c0,0,0.561,3.373-3.033,3.484c0,0-6.63,2.807-11.686,1.909c0,0-0.001-4.493,5.842-7.303
			c0,0,1.572-7.866,0-14.944c0,0-15.055-8.987-19.662-27.528c-4.608-18.539-12.248-17.753-17.979-23.034
			c-5.73-5.28-15.393-18.764-12.472-26.179c0.663-1.682,1.281-3.246,1.847-4.671c-0.625-1.177-1.267-2.291-0.468-3.651
			c1.749-2.98,3.116-4.712,3.116-4.712s-2.36-5.281,3.539-6.798c5.84-1.502,4.143-0.034,6.561-1.914
			c0.028-0.036,0.062-0.071,0.091-0.107l1.602-3.848c0.045-1.361-0.451-2.849-1.729-4.507c-1.127-1.463-1.734-0.336-1.734-0.336
			c-0.354,2.12-1.822,3.989-1.822,3.989c-2.547,3.648-8.024,6.652-8.024,6.652c1.814-1.144,5.367-5.886,5.367-5.886
			c-4.86,1.319-8.958,7.405-8.958,7.405s3.711-6.392,6.349-7.57c2.64-1.18,3.036-3.208,3.036-3.208
			c-1.504,2.13-2.383,1.724-5.437,3.719c-3.052,1.997-3.49,3.936-3.49,3.936c0.254-5.337,3.997-5.305,6.561-8.203
			c2.56-2.896-2.464-4.26-2.464-4.26c-1.926-0.487-2.04-2.631-2.04-2.631c-0.431-0.597,0.051-0.99,0.051-0.99
			c-1.185-0.673-1.267-1.549-0.839-1.984c0.428-0.436,1.176-2.587,1.176-2.587c1.101-1.617,6.75-2.487,6.75-2.487l9.169-2.298
			c0,0,1.772-2.943,3.94-2.859c0,0-1.168-2.667-0.5-4.667c0,0,4.082,1.833,4.189,5.843c6.773-1.96,9.219,1.416,9.219,1.416
			c-0.535-0.383-2.063,0.102-2.063,0.102c9.839,5.015,8.358,12.714,8.358,12.714c-0.406-1.896-2.277-1.061-2.277-1.061
			c-0.379,3.233,6.416,6.254,6.416,6.254c-0.895,0.581-4.514,0.391-4.514,0.391c0.438,3.021,4.266,5.682,4.266,5.682
			c-1.408,0.278-3.5-0.396-3.5-0.396c0.298,1.142,5.802,3.888,5.246,7.778c-0.556,3.888-4.408,2.8-4.408,2.8
			c1.121-0.378,1.033-1.05,0.998-2.522c-0.031-1.35-4.307-2.682-4.74,0.474c-0.008,0.254-0.021,0.514-0.03,0.77
			c0.003,0.06-0.004,0.109,0.001,0.172c0.35,4.351,6.377,8.441,6.377,8.441c-1.865-0.473-5.304-0.972-4.018,0.958
			c1.285,1.929,1.381,3.297-0.259,5.03c-1.638,1.733-2.866-0.646-2.866-0.646c0.607,3.673,3.166,4.14,4.197,5.089
			c1.031,0.951,0.484,1.529-0.555,1.886c-1.039,0.358-2.389-1.816-2.389-1.816c-0.699-0.802-1.346-1.15-1.901-1.253
			c-0.438,4.698-1.539,10.843,7.267,17.322c8.933,6.573,9.775,12.135,9.775,12.135s3.693,2.734,5.354-0.83l-0.342,1.661
			c0,0,5.763-4.2,4.394-7.862c0,0,2.246,1.368,1.416,4.737c0,0,0.928-0.341,0.928-0.879c0,0,0.537,3.027-2.1,6.348
			c0,0,1.074-0.245,1.465-0.879c0,0-1.074,5.47-7.812,6.983c0,0,0.684,0.341,1.416,0.097
			C251.842,126.106,250.422,127.818,246.438,126.438z"/>
		<path fill-rule="evenodd" clip-rule="evenodd" fill="#FFFFFF" d="M211.371,40.101c0,0,1.515-0.578,2.41-1.939
			c0,0,0.632-0.503,3.001,2.71c0,0-1.741,1.464-3.401-0.55C213.381,40.322,212.524,39.535,211.371,40.101z"/>
		<path fill-rule="evenodd" clip-rule="evenodd" fill="#FFFFFF" d="M213.388,39.551c0,0-0.328-0.728,0.061-1.277"/>
		<path display="none" fill-rule="evenodd" clip-rule="evenodd" fill="#FFFFFF" d="M216.189,38.03
			c0.725,0.138-1.01-0.111-1.41,0.597c-0.546,0.715,0.909,1.656,1.419,1.977c-1.454,0.381-2.809-0.795-4.219-1.123
			c1.076,0.049,2.333-0.349,3.023-1.697C215.358,38.508,215.821,37.505,216.189,38.03z"/>
		<path fill-rule="evenodd" clip-rule="evenodd" fill="#292424" d="M220.275,87.391c0,0-9.026,6.446-12.69,7.65
			c0,0,1.426,1.021,2.158,0.977c0,0-6.838,0.998-10.689,0.586c-3.854-0.412-9.947-0.767-9.947-0.767s-4.455-0.343-6.45,0.094
			c-1.996,0.435-2.262,2.021-4.143,0.969c0,0-6.856-2.679-8.11-8.914c0,0,5.178-1.541,9.46,1.518c0,0,6.338-1.431,9.136-1.305
			c2.794,0.126,12.205-0.705,12.205-0.705l0.303,0.027"/>
		<path fill-rule="evenodd" clip-rule="evenodd" fill="#292424" d="M228.07,126.161l5.736,20.683
			c-4.67,2.176-9.211,0.691-9.211,0.691s0.238,2.895-1.283,2.564c-1.965-0.428-1.537-3.59-1.537-3.59
			c-1.202-0.381-2.843-2.707-2.843-2.707s-0.397,2.527-1.944,1.682c-1.881-1.025,0.086-3.846,0.086-3.846
			c-8.273-11.496-0.506-20.327-0.506-20.327L228.07,126.161z"/>
		<path fill-rule="evenodd" clip-rule="evenodd" fill="#292424" d="M223.555,39.953c0,0,1.119-1.21,1.477-3.008
			c0.356-1.796,2.751-3.248,3.788-3.679c1.037-0.43,3.567-1.695,4.511-1.688c0,0,1.53,1.173,0.516,3.47
			c-1.016,2.299-3.305,4.296-5.334,4.937c-2.027,0.64-2.832,0.074-3.766,1.048"/>
	</g>
	<g id="Shield">
		<path fill="#FFFFFF" d="M142.271,181.518c-5-0.463-39.298-24.093-39.298-54.923V74.298c5.077-1.072,19.924-3.802,39.298-3.802
			c19.376,0,34.224,2.73,39.3,3.802v52.296C181.571,157.429,147.271,181.055,142.271,181.518L142.271,181.518z"/>
		<path fill="#292424" d="M142.272,67.997c24.611,0,41.798,4.297,41.798,4.297s0,21.486,0,54.3
			c0,32.814-36.329,57.425-41.798,57.425c-5.469,0-41.799-24.61-41.799-57.425c0-32.814,0-54.3,0-54.3
			S117.661,67.997,142.272,67.997 M142.272,72.997c-17.052,0-30.547,2.14-36.799,3.346v50.252c0,15.416,9.001,28.407,16.551,36.59
			c8.583,9.303,17.528,14.781,20.248,15.744c2.719-0.963,11.664-6.441,20.247-15.744c7.551-8.183,16.551-21.174,16.551-36.59V76.343
			C172.818,75.137,159.324,72.997,142.272,72.997L142.272,72.997z"/>
	</g>
	<path id="Goat_1_x27_s_Arm" fill-rule="evenodd" clip-rule="evenodd" fill="#292424" d="M62.233,85.424
		c0,0,13.237,3.602,18.004,3.423c0,0-1.217,1.795-2.084,2.059c0,0,8.359-1.778,12.649-3.909c4.291-2.132,11.206-5.162,11.206-5.162
		s5.023-2.31,7.523-2.661c2.501-0.351,3.49,1.374,5.22-0.652c0,0,6.8-6.052,5.579-13.823c0,0-6.669,0.435-10.321,5.824
		c0,0-7.964,1.062-11.154,2.408c-3.188,1.346-14.459,4.426-14.459,4.426l-0.339,0.16"/>
	<path id="Goat_2_x27_s_arm" fill-rule="evenodd" clip-rule="evenodd" fill="#292424" d="M222.311,85.424
		c0,0-13.236,3.602-18.004,3.423c0,0,1.217,1.795,2.083,2.059c0,0-8.357-1.778-12.648-3.909c-4.291-2.132-11.207-5.162-11.207-5.162
		s-5.021-2.31-7.523-2.661c-2.5-0.351-3.489,1.374-5.22-0.652c0,0-6.801-6.052-5.579-13.823c0,0,6.669,0.435,10.32,5.824
		c0,0,7.965,1.062,11.154,2.408c3.189,1.346,14.459,4.426,14.459,4.426l0.34,0.16"/>
	<g id="Bee">
		<g id="_x31_st_half">
			<path fill-rule="evenodd" clip-rule="evenodd" fill="none" d="M142.007,151.788c-0.819,0-8.504-4.301-10.29-13.163
				c-1.236-6.134-0.706-15.229,0.857-19.081c2.001-4.931,4.306-5.716,4.306-5.716"/>
			<path fill-rule="evenodd" clip-rule="evenodd" fill="#292424" d="M134.337,100.429c0,0-4.288,0.035-6.503,0.607
				c0,0-2.716-8.004-5.646-10.362c0,0,3.931,8.934,4.431,12.22c0,0,4.979-0.833,6.479-0.404c0,0-4.24,2.858-7.289,6.146
				c0,0-6.146-5.812-7.67-6.86c0,0-1.453-0.643-3.633-1.704c0,0,5.324,4.431,10.636,10.994c0,0,5.729-4.24,8.159-4.812l-0.298-2.954
				l0.476-1.667L134.337,100.429z"/>
			<path fill-rule="evenodd" clip-rule="evenodd" fill="#292424" d="M134.879,108.192l-6.867,8.783c0,0-3.27,16.896-4.3,21.722
				c0,0-2.287,7.146-3.073,10.219c0,0,6.289-9.754,8.719-12.256c0,0,2.071-14.652,2.001-18.973l6.582-4.308L134.879,108.192z"/>
			<path fill="#292424" d="M136.402,124.628c-3.128-1.294-3.611-3.383-3.613-3.38l-0.552,2.838c0,0,0.05,0.09,0.143,0.229
				l-0.143,0.736c0,0,0.842,1.652,3.576,2.816c2.613,1.147,5.159,1.163,6.195,1.166v-3.364
				C141.021,125.671,138.701,125.638,136.402,124.628z"/>
			<path fill="#292424" d="M137.059,118.411c-2.763-1.294-3.189-3.383-3.191-3.38l-0.487,2.838c0,0,0.044,0.09,0.126,0.228
				l-0.126,0.737c0,0,0.744,1.652,3.157,2.815c2.308,1.147,4.556,1.163,5.471,1.165v-3.364
				C141.136,119.454,139.087,119.421,137.059,118.411z"/>
			<path fill="#292424" d="M135.788,130.738c-3.473-1.292-4.007-3.382-4.011-3.379l-0.612,2.838c0,0,0.05,0.081,0.135,0.196
				l-0.135,0.626c0,0,0.935,1.653,3.968,2.815c2.899,1.148,5.724,1.163,6.874,1.165v-3.219
				C140.912,131.78,138.338,131.748,135.788,130.738z"/>
			<path fill="#292424" d="M135.788,136.896c-3.357-1.333-4.515-3.265-4.518-3.263l0.009,0.682
				c-0.001-0.003-0.009-0.013-0.009-0.013l0.185,2.799c0,0,0.645,1.572,3.679,2.734c2.899,1.148,5.724,1.164,6.874,1.166v-3.066
				C140.912,137.938,138.337,137.906,135.788,136.896z"/>
			<path fill="#292424" d="M136.698,142.731c-3.123-1.104-4.526-3.036-4.529-3.034l0.704,2.629c0,0,0.679,1.354,3.268,2.346
				c2.475,0.98,4.886,0.993,5.868,0.995v-2.049C141.072,143.621,138.905,143.512,136.698,142.731z"/>
			<path fill="#292424" d="M138.286,147.387c-2.263-0.74-3.083-1.438-3.085-1.436c0,0,0.879,2.163,2.694,2.924
				c1.735,0.752,3.425,0.763,4.113,0.764v-1.651C141.353,147.989,139.863,147.9,138.286,147.387z"/>
			<g>
				<path fill="#FFFFFF" d="M135.647,103.394c0,0-18.978,19.758-20.55,22.617c-1.57,2.86-4.785,9.405-4.338,12.89
					c0.446,3.481,3.076,4.968,10.441,2.032c7.364-2.934,9.488-5.711,11.035-10.896c1.544-5.185,4.942-21.939,4.942-21.939
					l-1.491-4.586"/>
				<path fill="#292424" d="M114.847,142.997c-1.054,0-1.924-0.206-2.622-0.616c-1.094-0.644-1.754-1.793-1.962-3.417
					c-0.5-3.901,3.238-11.085,4.396-13.194c1.586-2.883,19.851-21.914,20.627-22.722l0.462,0.443l0.413-0.134l1.531,4.711
					l-0.026,0.128c-0.034,0.168-3.42,16.836-4.953,21.982c-1.537,5.156-3.625,8.149-11.329,11.218
					C118.706,142.465,116.54,142.997,114.847,142.997z M135.43,104.342c-6.689,6.979-18.711,19.758-19.895,21.909
					c-2.31,4.208-4.647,9.724-4.28,12.585c0.169,1.319,0.652,2.196,1.477,2.682c1.514,0.889,4.3,0.538,8.283-1.05
					c7.367-2.935,9.267-5.634,10.741-10.575c1.449-4.865,4.585-20.197,4.905-21.767L135.43,104.342z"/>
			</g>
			<path fill-rule="evenodd" clip-rule="evenodd" fill="#292424" d="M142.007,116.115c-2.93,0-9.194-2.715-9.194-12.339
				c0-6.289,9.212-6.081,9.212-6.081"/>
			<g id="Pattern" display="none">
				<path display="inline" fill="none" stroke="#000000" stroke-width="0.5" d="M133.503,105.895c0,0-1.93,7.361-3.645,9.719
					c-1.715,2.358-10.184,5.11-11.578,6.503c0,0-0.357,2.43,0.143,3.859c0,0-0.643,2.358-2.93,4.216
					c-2.287,1.858-4.216,4.359-4.216,4.359"/>
				<path display="inline" fill="none" stroke="#000000" stroke-width="0.5" d="M125.142,123.833c0,0-1.858,1.251-3.037,2.323
					c0,0-0.572-0.143-0.822-0.072c-0.25,0.072-1.787,2.43-1.787,2.43l-2.119,6.515"/>
				<polyline display="inline" fill="none" stroke="#000000" stroke-width="0.5" points="123.903,119.307 122.236,120.736 
					120.95,123.928 121.283,126.084 				"/>
				<path display="inline" fill="none" stroke="#000000" stroke-width="0.5" d="M117.281,128.263"/>
				<path display="inline" fill="none" stroke="#000000" stroke-width="0.5" d="M119.568,128.359"/>
				<path display="inline" fill="none" stroke="#000000" stroke-width="0.5" d="M126.953,125.738c0,0-4.192,3.431-4.859,6.146
					l0.19,5.432"/>
				<path display="inline" fill="none" stroke="#000000" stroke-width="0.5" d="M135.433,103.823l-4.669,13.387l-2.477,9.195
					c-1.715-0.5-3.145-2.573-3.145-2.573c1.072-1.144,5.074-8.647,5.074-8.647"/>
				<path display="inline" fill="none" stroke="#000000" stroke-width="0.5" d="M135.528,104.156l-4.193,16.15l0.286,1.382
					l-2.096,5.479c0,0-2.669,3.144-1.477,8.289"/>
			</g>
			<path fill="#292424" d="M118.043,130.002c-0.065,0-0.131-0.013-0.194-0.039c-0.255-0.107-0.374-0.4-0.267-0.655
				c4.558-10.824,16.185-22.809,16.302-22.928c0.193-0.198,0.646,0.151,0.453,0.349c-0.116,0.119-11.962,11.771-15.833,22.967
				C118.437,129.892,118.238,130.002,118.043,130.002z"/>
		</g>
		<g id="_x32_nd_half">
			<path fill-rule="evenodd" clip-rule="evenodd" fill="none" d="M141.913,151.788c0.82,0,8.504-4.301,10.291-13.163
				c1.235-6.134,0.703-15.229-0.858-19.081c-2.001-4.931-4.306-5.716-4.306-5.716"/>
			<path fill-rule="evenodd" clip-rule="evenodd" fill="#292424" d="M141.895,87.368l0.042-0.244
				c2.441-3.776,4.406-5.384,4.406-5.384c-2.108,2.823-2.679,5.324-2.679,5.324s1.572,0.179,4.895,2.037
				c2.01,1.124,3.631,3.482,3.395,5.074c-0.42,2.832-2.847,5.598-2.847,5.598h-7.194h0.095h-7.193c0,0-2.427-2.767-2.847-5.598
				c-0.237-1.592,1.384-3.95,3.395-5.074c3.323-1.858,4.895-2.037,4.895-2.037s-0.571-2.501-2.68-5.324c0,0,1.965,1.608,4.407,5.384
				l0.042,0.244"/>
			<path fill-rule="evenodd" clip-rule="evenodd" fill="#292424" d="M149.631,100.429c0,0,4.287,0.035,6.503,0.607
				c0,0,2.716-8.004,5.646-10.362c0,0-3.93,8.934-4.43,12.22c0,0-4.98-0.833-6.48-0.404c0,0,4.239,2.858,7.289,6.146
				c0,0,6.146-5.812,7.672-6.86c0,0,1.452-0.643,3.632-1.704c0,0-5.323,4.431-10.637,10.994c0,0-5.729-4.24-8.158-4.812l0.299-2.954
				l-0.477-1.667L149.631,100.429z"/>
			<path fill="#292424" d="M147.613,124.628c3.129-1.294,3.61-3.383,3.613-3.38l0.552,2.838c0,0-0.05,0.09-0.143,0.229l0.143,0.736
				c0,0-0.843,1.652-3.576,2.816c-2.613,1.147-5.159,1.163-6.195,1.166v-3.364C142.995,125.671,145.315,125.638,147.613,124.628z"/>
			<path fill="#292424" d="M146.956,118.411c2.763-1.294,3.189-3.383,3.192-3.38l0.486,2.838c0,0-0.045,0.09-0.126,0.228
				l0.126,0.737c0,0-0.744,1.652-3.158,2.815c-2.307,1.147-4.555,1.163-5.47,1.165v-3.364
				C142.879,119.454,144.927,119.421,146.956,118.411z"/>
			<path fill="#292424" d="M148.227,130.738c3.474-1.292,4.008-3.382,4.012-3.379l0.612,2.838c0,0-0.051,0.081-0.136,0.196
				l0.136,0.626c0,0-0.936,1.653-3.97,2.815c-2.9,1.148-5.723,1.163-6.874,1.165v-3.219
				C143.103,131.78,145.677,131.748,148.227,130.738z"/>
			<path fill="#292424" d="M148.227,136.896c3.356-1.333,4.515-3.265,4.518-3.263l-0.009,0.682c0.001-0.003,0.009-0.013,0.009-0.013
				l-0.232,2.87c0,0-0.599,1.501-3.632,2.663c-2.9,1.148-5.723,1.164-6.874,1.166v-3.066
				C143.103,137.938,145.678,137.906,148.227,136.896z"/>
			<path fill="#292424" d="M147.315,142.731c3.125-1.104,4.527-3.036,4.53-3.034l-0.704,2.629c0,0-0.678,1.354-3.268,2.346
				c-2.475,0.98-4.886,0.993-5.867,0.995v-2.049C142.942,143.621,145.109,143.512,147.315,142.731z"/>
			<path fill="#292424" d="M145.73,147.387c2.264-0.74,3.083-1.438,3.085-1.436c0,0-0.88,2.163-2.694,2.924
				c-1.735,0.752-3.426,0.763-4.113,0.764v-1.651C142.662,147.989,144.151,147.9,145.73,147.387z"/>
			<path fill-rule="evenodd" clip-rule="evenodd" fill="#292424" d="M149.137,108.192l6.866,8.783c0,0,3.27,16.896,4.299,21.722
				c0,0,2.287,7.146,3.073,10.219c0,0-6.289-9.754-8.719-12.256c0,0-2.071-14.652-2.001-18.973l-6.583-4.308L149.137,108.192z"/>
			<g>
				<path fill="#FFFFFF" d="M148.367,103.394c0,0,18.979,19.758,20.551,22.617c1.569,2.86,4.786,9.405,4.338,12.89
					c-0.444,3.481-3.076,4.968-10.441,2.032c-7.362-2.934-9.488-5.711-11.034-10.896c-1.543-5.185-4.94-21.939-4.94-21.939
					l1.49-4.586"/>
				<path fill="#292424" d="M169.168,142.997c-1.693,0-3.859-0.532-6.539-1.6c-7.704-3.07-9.791-6.063-11.328-11.217
					c-1.531-5.147-4.917-21.815-4.951-21.983l-0.026-0.128l1.531-4.711l0.412,0.134l0.461-0.443
					c0.777,0.809,19.043,19.839,20.629,22.722c1.157,2.111,4.896,9.299,4.396,13.195c-0.207,1.622-0.866,2.771-1.96,3.415
					C171.094,142.791,170.223,142.997,169.168,142.997z M147.356,108.127c0.319,1.568,3.455,16.902,4.903,21.767
					c1.473,4.939,3.373,7.639,10.74,10.574c3.984,1.588,6.771,1.94,8.284,1.05c0.825-0.486,1.308-1.363,1.476-2.681
					c0.368-2.857-1.97-8.375-4.28-12.585c-1.37-2.491-16.702-18.571-19.895-21.907L147.356,108.127z"/>
			</g>
			<path fill-rule="evenodd" clip-rule="evenodd" fill="#292424" d="M141.913,116.115c2.93,0,9.196-2.715,9.196-12.339
				c0-6.289-9.213-6.081-9.213-6.081"/>
			<path fill="#292424" d="M165.886,130.002c0.065,0,0.131-0.013,0.194-0.039c0.255-0.107,0.374-0.4,0.267-0.655
				c-4.558-10.824-16.185-22.809-16.302-22.928c-0.193-0.198-0.646,0.151-0.453,0.349c0.116,0.119,11.962,11.771,15.833,22.967
				C165.493,129.892,165.691,130.002,165.886,130.002z"/>
		</g>
		<path fill-rule="evenodd" clip-rule="evenodd" fill="#292424" d="M142.007,150.899c-1.482,0-3.448-0.821-3.448-0.821
			c2.519,2.055,3.448,1.965,3.448,1.965s0.929,0.09,3.449-1.965C145.456,150.078,143.491,150.899,142.007,150.899z"/>
		<g id="Eyes">
			<path fill-rule="evenodd" clip-rule="evenodd" fill="#FFFFFF" d="M139.454,88.924c0,0-4.808,0.58-5.123,4.74
				C134.332,93.664,137.273,95.845,139.454,88.924z"/>
			<path fill-rule="evenodd" clip-rule="evenodd" fill="#FFFFFF" d="M144.56,88.924c0,0,4.81,0.58,5.124,4.74
				C149.684,93.664,146.742,95.845,144.56,88.924z"/>
		</g>
	</g>
	<path id="Crown" fill-rule="evenodd" clip-rule="evenodd" fill="#292424" d="M148.358,30.197c-2.53,4.582,3.75,3.926,3.229,8.611
		c-0.159,1.426-4.352,3.876-4.305,4.307c0.372,3.495,7.38,2.161,9.15-1.076c-1.5-1.19-2.617-2.765-2.155-5.921
		c5.025-5.393,11.532,3.312,5.384,6.459c1.258,3.372,5.414,5.32,9.15,3.229c-1.691-1.535-1.891-4.568-3.229-6.459
		c4.151-2.524,8.531-7.565,13.996-6.998c-2.26,4.559-2.395,11.242-6.461,13.996c0.546,6.11-0.663,10.86-1.076,16.148
		c-17.136-3.037-42.614-3.037-59.75,0c-0.622-3.362-0.317-8.644-1.615-11.843c1.673-2.296,0.146-6.636-2.69-7.537
		c-0.166-4.499-2.201-7.13-3.229-10.765c5.565-0.846,9.181,4.774,13.993,6.458c-1.656,2.774-0.524,5.137-3.227,6.46
		c2.91,2.857,7.663,0.791,9.15-2.153c-0.22-2.29-2.744-2.279-2.691-4.843c0.99-8.52,13.421-0.598,5.922,3.768
		c1.735,2.662,5.862,3.931,9.15,2.153c-0.301-2.749-3.524-2.579-4.307-4.845c-0.964-5.398,5.415-4.018,3.231-9.15
		C140.014,27.644,144.39,27.577,148.358,30.197z"/>
</g>
<g id="Text">
	<g>
		<path fill="#292424" d="M18.653,212.169c0,3.888,0.07,6.767,0.212,8.64c0.141,1.873,0.458,3.039,0.954,3.498
			c0.212,0.212,0.468,0.397,0.769,0.557c0.3,0.158,0.689,0.283,1.166,0.371s1.078,0.158,1.802,0.212
			c0.724,0.053,1.598,0.079,2.624,0.079c1.413,0,2.676-0.07,3.79-0.212c1.113-0.141,1.987-0.601,2.624-1.378
			c0.353-0.424,0.653-0.936,0.901-1.537c0.247-0.601,0.406-1.147,0.477-1.643c0.07-0.459,0.229-0.689,0.477-0.689
			c0.212,0,0.318,0.265,0.318,0.795c0,0.142-0.018,0.424-0.053,0.848c-0.036,0.425-0.098,0.901-0.186,1.432
			c-0.088,0.53-0.177,1.069-0.265,1.616c-0.089,0.548-0.186,1.017-0.292,1.404c-0.106,0.318-0.204,0.565-0.292,0.742
			c-0.089,0.178-0.239,0.318-0.451,0.424c-0.212,0.106-0.521,0.177-0.927,0.212c-0.407,0.035-0.963,0.054-1.67,0.054
			c-1.908,0-3.569-0.019-4.982-0.054c-1.414-0.035-2.686-0.071-3.816-0.105c-1.131-0.071-2.12-0.115-2.968-0.133
			c-0.848-0.019-1.661-0.026-2.438-0.026c-0.106,0-0.363,0.008-0.769,0.026c-0.407,0.018-0.875,0.026-1.405,0.026
			c-0.53,0.035-1.069,0.062-1.616,0.08c-0.548,0.017-1.016,0.026-1.405,0.026c-0.565,0-0.848-0.142-0.848-0.424
			c0-0.212,0.141-0.318,0.424-0.318c0.247,0,0.512-0.018,0.795-0.053c0.283-0.035,0.547-0.088,0.795-0.159
			c0.53-0.106,0.892-0.424,1.086-0.954c0.194-0.53,0.345-1.184,0.451-1.961c0.141-1.131,0.22-2.694,0.239-4.69
			c0.017-1.996,0.026-4.267,0.026-6.811v-9.328c0-2.049,0-3.728,0-5.035c0-1.307,0-2.35,0-3.127c0-0.812-0.009-1.457-0.026-1.935
			c-0.019-0.477-0.045-0.928-0.08-1.352c-0.071-0.918-0.248-1.607-0.53-2.066c-0.283-0.459-0.866-0.777-1.749-0.954
			c-0.212-0.07-0.503-0.114-0.875-0.133c-0.371-0.018-0.681-0.026-0.927-0.026c-0.283,0-0.424-0.106-0.424-0.318
			c0-0.282,0.282-0.424,0.848-0.424c0.601,0,1.236,0.01,1.908,0.026c0.671,0.019,1.298,0.036,1.881,0.054s1.078,0.035,1.484,0.053
			c0.406,0.019,0.645,0.026,0.716,0.026c0.07,0,0.335-0.008,0.795-0.026c0.458-0.018,0.989-0.035,1.59-0.053
			c0.601-0.018,1.21-0.035,1.829-0.054c0.618-0.017,1.121-0.026,1.51-0.026c0.565,0,0.848,0.142,0.848,0.424
			c0,0.212-0.142,0.318-0.424,0.318c-0.177,0-0.433,0.009-0.769,0.026c-0.336,0.019-0.663,0.062-0.98,0.133
			c-0.778,0.142-1.298,0.45-1.563,0.928c-0.265,0.477-0.433,1.175-0.503,2.093c-0.036,0.424-0.062,0.875-0.08,1.352
			c-0.019,0.478-0.026,1.122-0.026,1.935c0,0.777,0,1.82,0,3.127c0,1.308,0,2.986,0,5.035V212.169z"/>
		<path fill="#292424" d="M52.042,194.256c0.283-0.742,0.495-1.22,0.636-1.432c0.141-0.212,0.3-0.317,0.477-0.317
			c0.247,0,0.432,0.15,0.556,0.45c0.124,0.301,0.309,0.698,0.557,1.192c0.141,0.318,0.451,1.06,0.928,2.226
			c0.477,1.166,1.051,2.571,1.722,4.214c0.671,1.643,1.405,3.445,2.2,5.406s1.581,3.896,2.358,5.804
			c0.777,1.907,1.511,3.719,2.2,5.432c0.689,1.715,1.28,3.137,1.775,4.267c0.424,1.025,0.821,1.838,1.192,2.438
			c0.371,0.602,0.724,1.078,1.06,1.431c0.335,0.354,0.644,0.602,0.927,0.742c0.283,0.142,0.548,0.248,0.795,0.318
			c0.353,0.105,0.689,0.177,1.007,0.212s0.601,0.053,0.848,0.053c0.141,0,0.273,0.026,0.397,0.079
			c0.123,0.054,0.186,0.151,0.186,0.292c0,0.142-0.106,0.238-0.318,0.291c-0.212,0.054-0.459,0.08-0.742,0.08
			c-0.177,0-0.513,0-1.007,0c-0.459,0-1.042,0-1.749,0c-0.672,0-1.405-0.01-2.2-0.026c-0.795-0.019-1.599-0.045-2.412-0.08
			c-0.459-0.035-0.848-0.061-1.166-0.079c-0.318-0.018-0.477-0.097-0.477-0.238c0-0.106,0.027-0.168,0.08-0.186
			c0.053-0.018,0.132-0.062,0.239-0.133c0.141-0.07,0.292-0.193,0.45-0.371c0.159-0.177,0.15-0.459-0.026-0.848l-4.187-10.335
			c-0.106-0.177-0.248-0.266-0.424-0.266H47.166c-0.212,0-0.371,0.125-0.477,0.371l-2.65,7.208
			c-0.459,1.202-0.689,2.209-0.689,3.021c0,0.459,0.167,0.777,0.503,0.954c0.335,0.177,0.697,0.265,1.086,0.265h0.424
			c0.318,0,0.477,0.124,0.477,0.371s-0.23,0.371-0.689,0.371c-0.283,0-0.636-0.01-1.06-0.026c-0.424-0.019-0.848-0.036-1.272-0.054
			c-0.424-0.018-0.804-0.035-1.14-0.053c-0.336-0.019-0.575-0.026-0.715-0.026c-0.106,0-0.327,0.008-0.663,0.026
			c-0.336,0.018-0.725,0.035-1.166,0.053c-0.442,0.018-0.919,0.035-1.431,0.054c-0.513,0.017-0.998,0.026-1.458,0.026
			c-0.6,0-0.901-0.124-0.901-0.371s0.142-0.371,0.424-0.371c0.177,0,0.407-0.008,0.689-0.026c0.283-0.018,0.512-0.044,0.689-0.08
			c1.06-0.141,1.863-0.583,2.412-1.324c0.547-0.742,1.051-1.678,1.511-2.81L52.042,194.256z M57.236,213.018
			c0.141,0,0.193-0.106,0.159-0.318l-4.611-12.349c-0.283-0.671-0.548-0.671-0.795,0l-4.346,12.349
			c-0.071,0.212-0.018,0.318,0.159,0.318H57.236z"/>
		<path fill="#292424" d="M78.012,206.393c0-1.73,0-3.145,0-4.24c0-1.095,0-1.979,0-2.65c0-0.706-0.009-1.263-0.026-1.669
			c-0.018-0.406-0.045-0.786-0.08-1.14c-0.071-0.776-0.212-1.359-0.424-1.749c-0.212-0.389-0.708-0.636-1.484-0.742
			c-0.177-0.034-0.433-0.061-0.769-0.079c-0.336-0.018-0.609-0.026-0.822-0.026c-0.248,0-0.371-0.124-0.371-0.371
			s0.247-0.371,0.742-0.371c0.53,0,1.104,0.009,1.723,0.026c0.618,0.019,1.192,0.026,1.722,0.026c0.53,0,0.989,0.01,1.378,0.026
			c0.388,0.019,0.618,0.026,0.689,0.026c0.106,0,0.406-0.008,0.901-0.026c0.494-0.017,1.042-0.026,1.643-0.026
			c0.6,0,1.21-0.008,1.829-0.026c0.618-0.018,1.104-0.026,1.458-0.026c1.484,0,2.994,0.115,4.531,0.345s2.923,0.769,4.161,1.616
			c0.282,0.212,0.609,0.504,0.98,0.874c0.371,0.371,0.724,0.822,1.06,1.352c0.335,0.53,0.618,1.122,0.848,1.776
			c0.229,0.653,0.345,1.369,0.345,2.146c0,1.661-0.416,3.33-1.246,5.008c-0.831,1.679-2.324,3.437-4.479,5.273
			c1.908,2.403,3.674,4.594,5.3,6.572c1.625,1.979,3.108,3.675,4.452,5.088c1.236,1.272,2.261,2.094,3.074,2.465
			c0.812,0.371,1.519,0.592,2.12,0.662c0.458,0.071,0.812,0.115,1.06,0.133c0.247,0.019,0.441,0.026,0.583,0.026
			c0.283,0,0.424,0.124,0.424,0.371c0,0.142-0.08,0.238-0.239,0.291c-0.159,0.054-0.45,0.08-0.875,0.08h-2.915
			c-1.343,0-2.358-0.071-3.047-0.212s-1.334-0.371-1.935-0.689c-1.025-0.53-2.005-1.342-2.941-2.438
			c-0.937-1.095-2.076-2.491-3.418-4.188c-0.495-0.601-0.99-1.228-1.484-1.881c-0.495-0.654-0.963-1.272-1.405-1.855
			c-0.442-0.583-0.848-1.121-1.219-1.616s-0.681-0.901-0.928-1.22c-0.177-0.176-0.389-0.265-0.636-0.265l-5.936-0.105
			c-0.212,0-0.318,0.124-0.318,0.37v1.061c0,2.191,0.008,4.126,0.026,5.804c0.018,1.679,0.08,2.977,0.186,3.896
			c0.07,0.671,0.22,1.21,0.45,1.616c0.229,0.406,0.697,0.662,1.405,0.769c0.318,0.071,0.689,0.124,1.113,0.159
			c0.424,0.035,0.742,0.053,0.954,0.053c0.247,0,0.371,0.124,0.371,0.371s-0.248,0.371-0.742,0.371c-0.636,0-1.281-0.01-1.935-0.026
			c-0.654-0.019-1.254-0.036-1.802-0.054c-0.548-0.018-1.007-0.035-1.378-0.053c-0.371-0.019-0.575-0.026-0.609-0.026
			c-0.708,0.035-1.299,0.062-1.776,0.079s-0.98,0.035-1.51,0.054c-0.53,0.017-0.972,0.026-1.325,0.026
			c-0.495,0-0.742-0.124-0.742-0.371s0.123-0.371,0.371-0.371c0.212,0,0.451-0.018,0.716-0.053c0.265-0.035,0.503-0.088,0.715-0.159
			c0.459-0.106,0.75-0.362,0.875-0.769c0.124-0.406,0.239-0.945,0.345-1.616c0.141-0.919,0.22-2.227,0.238-3.922
			c0.018-1.696,0.026-3.64,0.026-5.83V206.393z M82.04,210.208c0,0.248,0.106,0.442,0.318,0.583
			c0.176,0.106,0.441,0.195,0.795,0.266c0.353,0.071,0.769,0.142,1.246,0.212c0.477,0.071,0.98,0.124,1.51,0.159
			c0.53,0.035,1.06,0.053,1.59,0.053c0.564,0,1.147-0.035,1.749-0.106c0.6-0.07,1.183-0.3,1.749-0.688
			c0.812-0.53,1.484-1.378,2.014-2.544c0.53-1.166,0.795-2.614,0.795-4.346c0-2.827-0.715-5.009-2.146-6.546
			c-1.431-1.537-3.401-2.306-5.909-2.306c-0.708,0-1.378,0.026-2.014,0.079c-0.636,0.054-1.078,0.115-1.325,0.186
			c-0.248,0.142-0.371,0.318-0.371,0.53V210.208z"/>
		<path fill="#292424" d="M112.515,227.751c-1.237-0.177-2.332-0.494-3.286-0.953c-0.318-0.177-0.513-0.354-0.583-0.53
			c-0.071-0.177-0.106-0.565-0.106-1.166c0-1.131,0.035-2.111,0.106-2.941c0.07-0.83,0.124-1.439,0.159-1.829
			c0-0.494,0.123-0.741,0.371-0.741c0.282,0,0.424,0.177,0.424,0.529c0,0.178,0.008,0.416,0.026,0.716
			c0.018,0.301,0.062,0.609,0.133,0.928c0.176,0.812,0.512,1.502,1.007,2.066c0.494,0.566,1.086,1.025,1.775,1.378
			c0.689,0.354,1.431,0.61,2.226,0.769c0.795,0.159,1.581,0.239,2.358,0.239c2.332,0,4.081-0.574,5.247-1.723
			s1.749-2.57,1.749-4.267c0-0.812-0.115-1.537-0.345-2.173c-0.23-0.637-0.583-1.246-1.06-1.829
			c-0.477-0.583-1.087-1.174-1.829-1.775c-0.742-0.601-1.626-1.289-2.65-2.066l-2.12-1.591c-2.509-1.872-4.249-3.559-5.221-5.062
			c-0.972-1.501-1.458-3.029-1.458-4.584c0-1.307,0.247-2.491,0.742-3.551c0.494-1.061,1.201-1.952,2.12-2.677
			c0.918-0.724,2.005-1.28,3.259-1.67c1.254-0.388,2.658-0.583,4.213-0.583c0.918,0,1.811,0.054,2.677,0.159
			c0.865,0.106,1.581,0.23,2.146,0.371c0.458,0.106,0.803,0.168,1.033,0.186c0.229,0.019,0.433,0.026,0.61,0.026
			c0.318,0,0.477,0.106,0.477,0.318c0,0.105-0.036,0.539-0.106,1.298c-0.071,0.761-0.106,1.918-0.106,3.472
			c0,0.672-0.124,1.007-0.371,1.007c-0.177,0-0.283-0.053-0.318-0.158c-0.036-0.106-0.071-0.247-0.106-0.425
			c-0.036-0.282-0.124-0.662-0.265-1.139c-0.142-0.478-0.284-0.839-0.424-1.087c-0.071-0.141-0.23-0.335-0.477-0.583
			c-0.248-0.247-0.609-0.494-1.086-0.742c-0.477-0.246-1.078-0.459-1.802-0.636c-0.725-0.177-1.617-0.265-2.677-0.265
			c-1.696,0-3.153,0.415-4.373,1.245c-1.219,0.831-1.828,2.04-1.828,3.631c0,0.707,0.097,1.36,0.292,1.961
			c0.193,0.601,0.53,1.192,1.007,1.775s1.095,1.184,1.855,1.802c0.759,0.619,1.723,1.316,2.889,2.094l1.325,0.9
			c1.413,0.954,2.605,1.882,3.578,2.783c0.971,0.9,1.757,1.784,2.358,2.649c0.601,0.866,1.034,1.749,1.298,2.65
			c0.265,0.901,0.397,1.828,0.397,2.782c0,1.344-0.31,2.686-0.927,4.028c-0.619,1.343-1.758,2.562-3.418,3.657
			c-0.99,0.636-2.156,1.06-3.498,1.271c-1.343,0.212-2.65,0.318-3.922,0.318C114.917,228.017,113.751,227.928,112.515,227.751z"/>
		<path fill="#292424" d="M159.365,202.735c0-2.049,0-3.728,0-5.035c0-1.307,0-2.35,0-3.127c0-0.812-0.009-1.457-0.026-1.935
			c-0.018-0.477-0.045-0.928-0.079-1.352c-0.071-0.918-0.248-1.607-0.53-2.066c-0.283-0.459-0.866-0.777-1.749-0.954
			c-0.212-0.07-0.503-0.114-0.874-0.133c-0.371-0.018-0.681-0.026-0.928-0.026c-0.283,0-0.424-0.106-0.424-0.318
			c0-0.282,0.282-0.424,0.848-0.424c0.601,0,1.228,0.01,1.882,0.026c0.653,0.019,1.271,0.036,1.854,0.054s1.078,0.035,1.484,0.053
			c0.405,0.019,0.662,0.026,0.769,0.026c0.601,0,1.555-0.026,2.862-0.079c1.307-0.054,2.578-0.08,3.815-0.08
			c1.66,0,3.065,0.124,4.214,0.371c1.147,0.248,2.11,0.53,2.889,0.848c0.776,0.318,1.378,0.646,1.802,0.98
			c0.424,0.337,0.742,0.61,0.954,0.822c0.601,0.565,1.192,1.404,1.775,2.518c0.583,1.112,0.874,2.376,0.874,3.789
			c0,1.873-0.327,3.587-0.98,5.141c-0.654,1.556-1.563,2.889-2.729,4.002s-2.544,1.97-4.134,2.57
			c-1.59,0.602-3.321,0.901-5.194,0.901c-0.142,0-0.336,0-0.583,0c-0.212,0-0.389-0.018-0.529-0.053
			c-0.142,0-0.274-0.027-0.397-0.08c-0.125-0.053-0.186-0.149-0.186-0.291c0-0.212,0.097-0.345,0.291-0.397
			c0.194-0.054,0.574-0.08,1.14-0.08c1.272,0,2.473-0.22,3.604-0.662c1.13-0.441,2.102-1.051,2.914-1.829
			c0.812-0.776,1.458-1.687,1.935-2.729c0.478-1.041,0.716-2.181,0.716-3.418c0-0.424-0.026-0.954-0.079-1.59
			c-0.054-0.637-0.178-1.325-0.371-2.067c-0.195-0.742-0.486-1.501-0.875-2.279c-0.389-0.776-0.937-1.519-1.643-2.226
			c-0.707-0.706-1.423-1.245-2.146-1.616c-0.725-0.371-1.414-0.637-2.067-0.795c-0.654-0.159-1.245-0.239-1.775-0.239
			s-0.954,0-1.271,0c-0.46,0-0.894,0.026-1.299,0.08c-0.406,0.053-0.733,0.132-0.98,0.238c-0.283,0.106-0.424,0.442-0.424,1.007
			v21.783c0,2.544,0.008,4.814,0.026,6.811c0.018,1.996,0.097,3.56,0.238,4.69c0.07,0.777,0.229,1.431,0.478,1.961
			c0.246,0.53,0.776,0.848,1.59,0.954c0.388,0.071,0.821,0.124,1.298,0.159c0.478,0.035,0.839,0.053,1.087,0.053
			c0.282,0,0.424,0.106,0.424,0.318c0,0.282-0.283,0.424-0.848,0.424c-0.742,0-1.484-0.01-2.227-0.026
			c-0.741-0.019-1.423-0.036-2.04-0.054c-0.619-0.018-1.132-0.035-1.537-0.053c-0.406-0.019-0.646-0.026-0.716-0.026
			c-0.035,0-0.247,0.008-0.636,0.026c-0.39,0.018-0.848,0.035-1.378,0.053s-1.078,0.035-1.643,0.054
			c-0.566,0.017-1.043,0.026-1.432,0.026c-0.565,0-0.848-0.142-0.848-0.424c0-0.212,0.141-0.318,0.424-0.318
			c0.247,0,0.512-0.018,0.795-0.053c0.282-0.035,0.548-0.088,0.795-0.159c0.53-0.106,0.892-0.424,1.087-0.954
			c0.193-0.53,0.345-1.184,0.45-1.961c0.141-1.131,0.221-2.694,0.238-4.69s0.026-4.267,0.026-6.811V202.735z"/>
		<path fill="#292424" d="M192.173,206.393c0-1.73,0-3.145,0-4.24c0-1.095,0-1.979,0-2.65c0-0.706-0.009-1.263-0.026-1.669
			c-0.019-0.406-0.045-0.786-0.079-1.14c-0.071-0.776-0.212-1.359-0.425-1.749c-0.212-0.389-0.707-0.636-1.483-0.742
			c-0.178-0.034-0.434-0.061-0.769-0.079c-0.336-0.018-0.609-0.026-0.821-0.026c-0.248,0-0.371-0.124-0.371-0.371
			s0.246-0.371,0.742-0.371c0.529,0,1.095,0.009,1.695,0.026c0.601,0.019,1.166,0.026,1.696,0.026s0.98,0.01,1.352,0.026
			c0.371,0.019,0.591,0.026,0.662,0.026c0.035,0,0.318,0,0.849,0c0.529,0,1.166,0,1.907,0c0.777,0,1.607,0,2.491,0
			c0.919,0,1.784,0,2.598,0c0.812,0,1.519,0,2.119,0s0.989,0,1.166,0c0.459-0.034,0.883-0.079,1.272-0.132
			c0.389-0.053,0.671-0.097,0.848-0.133c0.106-0.035,0.212-0.079,0.318-0.133c0.105-0.053,0.212-0.079,0.318-0.079
			c0.141,0,0.212,0.142,0.212,0.424c0,0.178-0.045,0.416-0.133,0.716c-0.089,0.301-0.168,0.769-0.238,1.404
			c0,0.106-0.01,0.292-0.026,0.557c-0.019,0.265-0.045,0.557-0.08,0.874c-0.035,0.318-0.062,0.619-0.079,0.901
			c-0.019,0.283-0.045,0.495-0.08,0.636c-0.035,0.106-0.088,0.212-0.158,0.318c-0.071,0.105-0.159,0.159-0.266,0.159
			c-0.247,0-0.371-0.194-0.371-0.583c0-0.177-0.018-0.415-0.053-0.716c-0.035-0.3-0.105-0.591-0.212-0.874
			c-0.071-0.177-0.168-0.336-0.292-0.478c-0.124-0.141-0.31-0.265-0.556-0.371c-0.248-0.105-0.566-0.203-0.954-0.291
			c-0.39-0.088-0.901-0.168-1.537-0.238c-0.212-0.035-0.654-0.062-1.325-0.08c-0.672-0.018-1.387-0.034-2.146-0.053
			c-0.76-0.018-1.457-0.026-2.094-0.026c-0.636,0-1.025,0-1.166,0c-0.177,0-0.265,0.159-0.265,0.477v12.243
			c0,0.318,0.088,0.477,0.265,0.477c0.141,0,0.565,0,1.272,0c0.742,0,1.555,0,2.438,0s1.714-0.008,2.491-0.026
			c0.777-0.018,1.307-0.044,1.59-0.079c0.565-0.07,1.024-0.133,1.378-0.186s0.653-0.203,0.901-0.45
			c0.389-0.389,0.618-0.583,0.688-0.583c0.177,0,0.266,0.124,0.266,0.371c0,0.142-0.045,0.406-0.133,0.795
			c-0.089,0.389-0.168,0.954-0.238,1.695c-0.071,0.46-0.124,1.017-0.159,1.67c-0.035,0.654-0.053,1.069-0.053,1.245
			c0,0.178-0.026,0.363-0.08,0.557c-0.053,0.194-0.168,0.292-0.344,0.292c-0.212,0-0.318-0.142-0.318-0.425
			c0-0.212-0.009-0.441-0.026-0.688c-0.019-0.247-0.079-0.512-0.186-0.795c-0.071-0.318-0.257-0.601-0.557-0.849
			c-0.301-0.246-0.91-0.424-1.828-0.529c-0.318-0.035-0.831-0.07-1.537-0.106c-0.707-0.034-1.432-0.062-2.173-0.079
			c-0.742-0.018-1.432-0.026-2.067-0.026s-1.06,0-1.271,0c-0.213,0-0.318,0.105-0.318,0.317v3.764c0,0.389,0,0.972,0,1.749
			c0,0.741,0,1.52,0,2.332s0,1.572,0,2.278c0,0.672,0,1.113,0,1.325c0.035,0.742,0.123,1.352,0.265,1.828
			c0.141,0.478,0.415,0.849,0.821,1.113c0.406,0.266,0.963,0.442,1.67,0.53c0.706,0.089,1.643,0.133,2.809,0.133
			c0.601,0,1.379-0.018,2.332-0.054c0.954-0.034,1.731-0.176,2.332-0.424c0.601-0.282,1.068-0.645,1.405-1.086
			c0.335-0.441,0.573-1.122,0.715-2.041c0.106-0.459,0.266-0.688,0.478-0.688c0.141,0,0.229,0.07,0.265,0.212s0.053,0.3,0.053,0.477
			c0,0.071-0.018,0.292-0.053,0.662c-0.035,0.371-0.089,0.796-0.159,1.272c-0.071,0.477-0.142,0.937-0.212,1.378
			c-0.071,0.442-0.142,0.787-0.212,1.033c-0.071,0.283-0.168,0.504-0.291,0.663c-0.125,0.159-0.274,0.273-0.451,0.345
			c-0.177,0.07-0.415,0.114-0.715,0.132c-0.301,0.018-0.681,0.026-1.14,0.026c-1.768,0-3.322-0.018-4.664-0.053
			c-1.344-0.035-2.491-0.071-3.445-0.105c-0.989-0.071-1.802-0.106-2.438-0.106c-0.602,0-1.078,0-1.432,0c-0.071,0-0.301,0-0.688,0
			c-0.39,0-0.831,0.018-1.325,0.053c-0.46,0.035-0.928,0.062-1.404,0.08c-0.478,0.017-0.91,0.026-1.299,0.026
			c-0.495,0-0.742-0.124-0.742-0.371s0.124-0.371,0.371-0.371c0.212,0,0.451-0.026,0.716-0.079c0.265-0.054,0.503-0.098,0.716-0.133
			c0.458-0.07,0.75-0.318,0.874-0.742c0.123-0.424,0.238-0.972,0.345-1.643c0.141-0.919,0.22-2.227,0.238-3.922
			c0.018-1.696,0.026-3.64,0.026-5.83V206.393z"/>
		<path fill="#292424" d="M221.376,206.393c0-1.73,0-3.145,0-4.24c0-1.095,0-1.979,0-2.65c0-0.706-0.009-1.263-0.026-1.669
			c-0.019-0.406-0.045-0.786-0.079-1.14c-0.071-0.776-0.212-1.359-0.425-1.749c-0.212-0.389-0.707-0.636-1.483-0.742
			c-0.178-0.034-0.434-0.061-0.769-0.079c-0.336-0.018-0.609-0.026-0.821-0.026c-0.248,0-0.371-0.124-0.371-0.371
			s0.246-0.371,0.742-0.371c0.529,0,1.104,0.009,1.722,0.026c0.618,0.019,1.193,0.026,1.723,0.026c0.53,0,0.989,0.01,1.378,0.026
			c0.389,0.019,0.618,0.026,0.689,0.026c0.105,0,0.405-0.008,0.9-0.026c0.495-0.017,1.042-0.026,1.644-0.026
			c0.601,0,1.21-0.008,1.828-0.026c0.618-0.018,1.104-0.026,1.458-0.026c1.483,0,2.994,0.115,4.531,0.345s2.923,0.769,4.16,1.616
			c0.283,0.212,0.61,0.504,0.98,0.874c0.371,0.371,0.725,0.822,1.061,1.352c0.335,0.53,0.617,1.122,0.848,1.776
			c0.229,0.653,0.345,1.369,0.345,2.146c0,1.661-0.416,3.33-1.245,5.008c-0.831,1.679-2.324,3.437-4.479,5.273
			c1.907,2.403,3.674,4.594,5.3,6.572c1.625,1.979,3.108,3.675,4.452,5.088c1.236,1.272,2.261,2.094,3.073,2.465
			s1.52,0.592,2.12,0.662c0.459,0.071,0.812,0.115,1.061,0.133c0.246,0.019,0.441,0.026,0.583,0.026
			c0.282,0,0.424,0.124,0.424,0.371c0,0.142-0.079,0.238-0.238,0.291c-0.159,0.054-0.451,0.08-0.875,0.08h-2.915
			c-1.343,0-2.358-0.071-3.047-0.212c-0.689-0.141-1.335-0.371-1.935-0.689c-1.025-0.53-2.006-1.342-2.941-2.438
			c-0.938-1.095-2.076-2.491-3.419-4.188c-0.495-0.601-0.989-1.228-1.484-1.881c-0.495-0.654-0.963-1.272-1.404-1.855
			c-0.442-0.583-0.848-1.121-1.219-1.616s-0.681-0.901-0.928-1.22c-0.177-0.176-0.389-0.265-0.636-0.265l-5.937-0.105
			c-0.212,0-0.317,0.124-0.317,0.37v1.061c0,2.191,0.008,4.126,0.026,5.804c0.018,1.679,0.079,2.977,0.186,3.896
			c0.07,0.671,0.22,1.21,0.45,1.616c0.229,0.406,0.697,0.662,1.404,0.769c0.318,0.071,0.689,0.124,1.113,0.159
			s0.742,0.053,0.954,0.053c0.247,0,0.371,0.124,0.371,0.371s-0.248,0.371-0.742,0.371c-0.636,0-1.281-0.01-1.935-0.026
			c-0.654-0.019-1.255-0.036-1.802-0.054c-0.548-0.018-1.007-0.035-1.378-0.053c-0.371-0.019-0.575-0.026-0.609-0.026
			c-0.707,0.035-1.299,0.062-1.775,0.079c-0.478,0.018-0.98,0.035-1.511,0.054c-0.53,0.017-0.973,0.026-1.325,0.026
			c-0.495,0-0.742-0.124-0.742-0.371s0.124-0.371,0.371-0.371c0.212,0,0.451-0.018,0.716-0.053s0.503-0.088,0.716-0.159
			c0.458-0.106,0.75-0.362,0.874-0.769c0.123-0.406,0.238-0.945,0.345-1.616c0.141-0.919,0.22-2.227,0.238-3.922
			c0.018-1.696,0.026-3.64,0.026-5.83V206.393z M225.404,210.208c0,0.248,0.105,0.442,0.317,0.583
			c0.177,0.106,0.441,0.195,0.796,0.266c0.353,0.071,0.768,0.142,1.245,0.212c0.477,0.071,0.98,0.124,1.511,0.159
			c0.529,0.035,1.06,0.053,1.59,0.053c0.564,0,1.147-0.035,1.749-0.106c0.601-0.07,1.184-0.3,1.749-0.688
			c0.812-0.53,1.483-1.378,2.014-2.544s0.795-2.614,0.795-4.346c0-2.827-0.715-5.009-2.146-6.546
			c-1.431-1.537-3.401-2.306-5.909-2.306c-0.707,0-1.378,0.026-2.014,0.079c-0.637,0.054-1.079,0.115-1.325,0.186
			c-0.248,0.142-0.371,0.318-0.371,0.53V210.208z"/>
		<path fill="#292424" d="M255.881,227.751c-1.237-0.177-2.332-0.494-3.286-0.953c-0.318-0.177-0.513-0.354-0.583-0.53
			c-0.071-0.177-0.106-0.565-0.106-1.166c0-1.131,0.035-2.111,0.106-2.941c0.07-0.83,0.123-1.439,0.159-1.829
			c0-0.494,0.123-0.741,0.371-0.741c0.282,0,0.424,0.177,0.424,0.529c0,0.178,0.008,0.416,0.026,0.716
			c0.018,0.301,0.062,0.609,0.133,0.928c0.176,0.812,0.512,1.502,1.007,2.066c0.494,0.566,1.086,1.025,1.775,1.378
			c0.689,0.354,1.431,0.61,2.226,0.769c0.796,0.159,1.581,0.239,2.359,0.239c2.332,0,4.081-0.574,5.246-1.723
			c1.166-1.148,1.749-2.57,1.749-4.267c0-0.812-0.114-1.537-0.344-2.173c-0.23-0.637-0.583-1.246-1.061-1.829
			c-0.477-0.583-1.086-1.174-1.828-1.775c-0.742-0.601-1.626-1.289-2.65-2.066l-2.12-1.591c-2.509-1.872-4.249-3.559-5.22-5.062
			c-0.973-1.501-1.458-3.029-1.458-4.584c0-1.307,0.247-2.491,0.742-3.551c0.494-1.061,1.201-1.952,2.12-2.677
			c0.918-0.724,2.005-1.28,3.26-1.67c1.253-0.388,2.658-0.583,4.213-0.583c0.919,0,1.811,0.054,2.677,0.159
			c0.865,0.106,1.581,0.23,2.146,0.371c0.459,0.106,0.803,0.168,1.033,0.186c0.229,0.019,0.433,0.026,0.609,0.026
			c0.318,0,0.478,0.106,0.478,0.318c0,0.105-0.036,0.539-0.106,1.298c-0.071,0.761-0.105,1.918-0.105,3.472
			c0,0.672-0.124,1.007-0.371,1.007c-0.178,0-0.283-0.053-0.318-0.158c-0.035-0.106-0.071-0.247-0.105-0.425
			c-0.036-0.282-0.125-0.662-0.266-1.139c-0.142-0.478-0.283-0.839-0.424-1.087c-0.071-0.141-0.23-0.335-0.477-0.583
			c-0.248-0.247-0.609-0.494-1.087-0.742c-0.477-0.246-1.078-0.459-1.802-0.636c-0.725-0.177-1.616-0.265-2.677-0.265
			c-1.696,0-3.153,0.415-4.372,1.245c-1.22,0.831-1.829,2.04-1.829,3.631c0,0.707,0.097,1.36,0.292,1.961
			c0.193,0.601,0.529,1.192,1.007,1.775c0.477,0.583,1.095,1.184,1.854,1.802c0.76,0.619,1.723,1.316,2.889,2.094l1.325,0.9
			c1.413,0.954,2.605,1.882,3.577,2.783c0.972,0.9,1.758,1.784,2.359,2.649c0.6,0.866,1.033,1.749,1.298,2.65
			c0.266,0.901,0.397,1.828,0.397,2.782c0,1.344-0.31,2.686-0.928,4.028s-1.758,2.562-3.418,3.657
			c-0.989,0.636-2.155,1.06-3.498,1.271s-2.65,0.318-3.922,0.318C258.283,228.017,257.117,227.928,255.881,227.751z"/>
		<path fill="#292424" d="M101.376,251.069c0-1.353,0-2.461,0-3.325c0-0.862,0-1.551,0-2.064c0-0.537-0.006-0.963-0.018-1.277
			c-0.012-0.315-0.029-0.613-0.052-0.893c-0.047-0.606-0.164-1.062-0.35-1.365c-0.187-0.303-0.572-0.513-1.155-0.63
			c-0.14-0.047-0.333-0.076-0.577-0.088c-0.245-0.012-0.45-0.018-0.613-0.018c-0.187,0-0.28-0.069-0.28-0.21
			c0-0.187,0.187-0.28,0.56-0.28c0.396,0,0.816,0,1.26,0c0.443,0,0.863,0.013,1.26,0.035l1.435,0.07c0.116,0,0.385,0,0.805,0
			c0.443,0,0.957,0,1.54,0c0.606,0,1.248,0,1.925,0c0.676,0,1.306,0,1.89,0c0.606,0,1.132-0.006,1.575-0.018
			c0.443-0.012,0.735-0.018,0.875-0.018c0.327-0.022,0.624-0.04,0.893-0.053c0.268-0.011,0.484-0.04,0.647-0.087
			c0.116-0.047,0.21-0.093,0.28-0.141c0.07-0.046,0.14-0.069,0.21-0.069c0.14,0,0.21,0.104,0.21,0.314
			c0,0.117-0.035,0.298-0.105,0.543c-0.07,0.245-0.128,0.612-0.175,1.103c0,0.094-0.006,0.245-0.018,0.455
			c-0.012,0.21-0.029,0.438-0.052,0.683c-0.024,0.244-0.041,0.479-0.053,0.699c-0.012,0.223-0.029,0.38-0.052,0.473
			c-0.024,0.094-0.053,0.182-0.088,0.263c-0.035,0.082-0.099,0.122-0.192,0.122c-0.164,0-0.245-0.14-0.245-0.42
			c0-0.14-0.023-0.338-0.07-0.595c-0.047-0.257-0.128-0.501-0.245-0.735c-0.117-0.232-0.374-0.472-0.77-0.717
			c-0.397-0.245-0.934-0.379-1.61-0.402l-5.39-0.105c-0.21,0-0.315,0.129-0.315,0.385v9.66c0,0.21,0.082,0.315,0.245,0.315
			l4.48-0.035c0.303,0,0.571,0,0.805,0c0.256,0,0.513-0.012,0.77-0.035c0.42-0.047,0.752-0.104,0.997-0.175
			c0.245-0.07,0.449-0.222,0.613-0.455c0.07-0.093,0.134-0.175,0.192-0.245c0.058-0.07,0.123-0.104,0.192-0.104
			c0.117,0,0.175,0.093,0.175,0.279c0,0.117-0.035,0.327-0.105,0.63c-0.07,0.304-0.129,0.747-0.175,1.33
			c-0.023,0.188-0.041,0.397-0.052,0.63c-0.012,0.234-0.023,0.468-0.035,0.7c-0.012,0.233-0.023,0.443-0.035,0.63
			c-0.012,0.188-0.017,0.315-0.017,0.386c0,0.163-0.012,0.314-0.035,0.454c-0.023,0.141-0.094,0.211-0.21,0.211
			c-0.164,0-0.245-0.105-0.245-0.315c-0.023-0.187-0.047-0.391-0.07-0.612c-0.023-0.222-0.07-0.438-0.14-0.647
			c-0.094-0.257-0.286-0.514-0.578-0.771c-0.292-0.256-0.706-0.42-1.242-0.49c-0.21-0.022-0.578-0.04-1.103-0.052
			c-0.525-0.012-1.074-0.023-1.645-0.035c-0.572-0.012-1.103-0.018-1.593-0.018c-0.49,0-0.805,0-0.945,0
			c-0.164,0-0.245,0.104-0.245,0.315v2.975c0,1.68,0.005,3.18,0.018,4.497c0.012,1.319,0.064,2.352,0.158,3.098
			c0.046,0.514,0.151,0.945,0.315,1.295c0.163,0.351,0.513,0.561,1.05,0.63c0.256,0.048,0.542,0.082,0.857,0.105
			s0.554,0.035,0.718,0.035c0.187,0,0.28,0.069,0.28,0.21c0,0.187-0.187,0.28-0.56,0.28c-0.49,0-0.98-0.007-1.47-0.018
			c-0.49-0.013-0.939-0.023-1.348-0.035c-0.409-0.013-0.747-0.023-1.015-0.035c-0.269-0.012-0.426-0.018-0.472-0.018
			c-0.047,0-0.205,0.006-0.473,0.018c-0.269,0.012-0.578,0.022-0.928,0.035c-0.35,0.012-0.712,0.022-1.085,0.035
			c-0.374,0.011-0.688,0.018-0.945,0.018c-0.374,0-0.56-0.094-0.56-0.28c0-0.141,0.093-0.21,0.28-0.21
			c0.163,0,0.338-0.012,0.525-0.035c0.187-0.023,0.361-0.058,0.525-0.105c0.35-0.069,0.589-0.279,0.717-0.63
			c0.128-0.35,0.228-0.781,0.298-1.295c0.093-0.746,0.146-1.778,0.157-3.098c0.012-1.317,0.018-2.817,0.018-4.497V251.069z"/>
		<path fill="#292424" d="M118.509,252.242c0.478-1.365,1.213-2.625,2.205-3.78c0.991-1.155,2.257-2.111,3.797-2.87
			c1.54-0.758,3.372-1.138,5.495-1.138c1.727,0,3.336,0.258,4.83,0.771c1.493,0.514,2.782,1.254,3.867,2.223
			c1.085,0.968,1.937,2.141,2.555,3.518c0.618,1.377,0.927,2.928,0.927,4.654c0,1.657-0.297,3.227-0.892,4.708
			c-0.595,1.481-1.43,2.771-2.503,3.867s-2.375,1.966-3.902,2.607c-1.528,0.642-3.214,0.963-5.058,0.963
			c-2.1,0-3.908-0.356-5.425-1.067c-1.517-0.712-2.765-1.634-3.745-2.766c-0.98-1.131-1.704-2.392-2.17-3.779
			c-0.467-1.389-0.7-2.748-0.7-4.078C117.791,254.885,118.03,253.606,118.509,252.242z M121.711,259.942
			c0.49,1.388,1.172,2.572,2.047,3.552c0.875,0.98,1.901,1.732,3.08,2.258c1.178,0.525,2.467,0.787,3.867,0.787
			c0.7,0,1.522-0.122,2.468-0.367c0.945-0.245,1.855-0.729,2.73-1.452s1.615-1.744,2.222-3.062s0.91-3.051,0.91-5.198
			c0-1.772-0.251-3.342-0.752-4.707c-0.502-1.365-1.179-2.503-2.03-3.412c-0.852-0.91-1.832-1.599-2.94-2.065s-2.27-0.7-3.482-0.7
			c-1.283,0-2.467,0.205-3.552,0.612c-1.085,0.409-2.019,1.016-2.8,1.82s-1.395,1.814-1.837,3.027
			c-0.443,1.214-0.665,2.625-0.665,4.235C120.976,256.996,121.221,258.554,121.711,259.942z"/>
		<path fill="#292424" d="M149.571,253.484c0-1.143,0-2.076,0-2.8c0-0.723,0-1.307,0-1.75c0-0.467-0.006-0.834-0.018-1.103
			s-0.029-0.52-0.052-0.753c-0.048-0.513-0.141-0.897-0.28-1.154c-0.141-0.257-0.467-0.42-0.98-0.49
			c-0.117-0.023-0.286-0.041-0.507-0.053c-0.223-0.012-0.403-0.018-0.543-0.018c-0.163,0-0.245-0.081-0.245-0.245
			c0-0.163,0.163-0.245,0.49-0.245c0.35,0,0.729,0.007,1.138,0.018c0.408,0.013,0.787,0.018,1.138,0.018
			c0.35,0,0.652,0.006,0.909,0.018s0.408,0.018,0.455,0.018c0.07,0,0.269-0.006,0.596-0.018c0.326-0.012,0.688-0.018,1.085-0.018
			c0.396,0,0.799-0.005,1.207-0.018c0.408-0.011,0.729-0.018,0.963-0.018c0.979,0,1.978,0.076,2.992,0.228
			c1.015,0.152,1.931,0.508,2.747,1.067c0.187,0.141,0.403,0.333,0.648,0.578c0.244,0.245,0.478,0.542,0.699,0.893
			c0.222,0.35,0.408,0.741,0.561,1.172c0.151,0.433,0.228,0.905,0.228,1.418c0,1.097-0.274,2.199-0.823,3.308
			c-0.548,1.108-1.534,2.27-2.957,3.482c1.26,1.587,2.427,3.033,3.5,4.34s2.053,2.427,2.94,3.36c0.816,0.84,1.492,1.382,2.029,1.627
			s1.003,0.392,1.4,0.438c0.303,0.047,0.536,0.076,0.7,0.088c0.163,0.012,0.291,0.018,0.385,0.018c0.187,0,0.28,0.082,0.28,0.245
			c0,0.093-0.053,0.157-0.158,0.192c-0.104,0.035-0.297,0.053-0.577,0.053h-1.925c-0.888,0-1.558-0.048-2.013-0.141
			s-0.881-0.245-1.277-0.455c-0.677-0.35-1.324-0.887-1.942-1.609c-0.619-0.724-1.371-1.646-2.258-2.766
			c-0.327-0.396-0.653-0.811-0.979-1.242c-0.327-0.432-0.637-0.84-0.928-1.225c-0.292-0.386-0.561-0.741-0.806-1.068
			c-0.244-0.326-0.449-0.595-0.612-0.805c-0.117-0.116-0.257-0.175-0.42-0.175l-3.92-0.07c-0.14,0-0.21,0.082-0.21,0.245v0.7
			c0,1.447,0.006,2.725,0.018,3.832c0.012,1.108,0.053,1.967,0.122,2.573c0.047,0.443,0.146,0.799,0.298,1.067
			c0.151,0.269,0.461,0.438,0.928,0.507c0.21,0.048,0.455,0.082,0.734,0.105c0.28,0.023,0.49,0.035,0.631,0.035
			c0.162,0,0.244,0.082,0.244,0.245s-0.163,0.245-0.489,0.245c-0.42,0-0.847-0.007-1.277-0.018c-0.433-0.013-0.829-0.023-1.19-0.035
			c-0.362-0.013-0.665-0.023-0.91-0.035s-0.38-0.018-0.402-0.018c-0.467,0.023-0.857,0.04-1.173,0.053
			c-0.314,0.012-0.647,0.022-0.997,0.035c-0.351,0.011-0.643,0.018-0.875,0.018c-0.327,0-0.49-0.082-0.49-0.245
			s0.082-0.245,0.245-0.245c0.14,0,0.298-0.012,0.473-0.035s0.332-0.058,0.473-0.105c0.303-0.069,0.495-0.238,0.577-0.507
			c0.081-0.269,0.157-0.624,0.228-1.067c0.093-0.606,0.146-1.471,0.157-2.591c0.012-1.119,0.018-2.402,0.018-3.85V253.484z
			 M152.231,256.005c0,0.163,0.07,0.292,0.21,0.385c0.116,0.069,0.292,0.128,0.525,0.175c0.232,0.047,0.507,0.094,0.822,0.14
			c0.314,0.047,0.647,0.082,0.997,0.105c0.351,0.023,0.7,0.035,1.051,0.035c0.372,0,0.758-0.023,1.154-0.07s0.782-0.198,1.155-0.455
			c0.536-0.35,0.98-0.91,1.33-1.68c0.35-0.771,0.525-1.727,0.525-2.87c0-1.866-0.473-3.308-1.418-4.322
			c-0.945-1.016-2.246-1.522-3.902-1.522c-0.467,0-0.91,0.018-1.33,0.052c-0.42,0.035-0.712,0.076-0.875,0.123
			c-0.164,0.094-0.245,0.21-0.245,0.35V256.005z"/>
		<path fill="#292424" d="M172.356,267.59c-0.817-0.117-1.54-0.327-2.17-0.631c-0.21-0.116-0.339-0.232-0.385-0.35
			c-0.047-0.116-0.07-0.373-0.07-0.77c0-0.747,0.023-1.395,0.07-1.943c0.046-0.548,0.081-0.95,0.104-1.207
			c0-0.326,0.082-0.49,0.245-0.49c0.187,0,0.28,0.117,0.28,0.351c0,0.116,0.006,0.274,0.018,0.472
			c0.012,0.199,0.04,0.403,0.087,0.613c0.117,0.537,0.339,0.991,0.665,1.364c0.327,0.374,0.718,0.678,1.173,0.91
			c0.455,0.233,0.945,0.402,1.47,0.508c0.525,0.104,1.044,0.157,1.558,0.157c1.54,0,2.695-0.379,3.465-1.138
			c0.771-0.758,1.155-1.697,1.155-2.817c0-0.536-0.076-1.015-0.228-1.435c-0.152-0.42-0.385-0.822-0.7-1.208
			c-0.314-0.385-0.717-0.775-1.207-1.172s-1.073-0.852-1.75-1.365l-1.4-1.05c-1.657-1.236-2.806-2.351-3.447-3.343
			c-0.642-0.991-0.963-2-0.963-3.027c0-0.863,0.163-1.646,0.49-2.345c0.326-0.7,0.793-1.289,1.4-1.768
			c0.606-0.479,1.324-0.846,2.152-1.103s1.756-0.386,2.782-0.386c0.606,0,1.195,0.035,1.768,0.105
			c0.571,0.07,1.044,0.152,1.418,0.245c0.303,0.07,0.53,0.111,0.683,0.122c0.151,0.013,0.285,0.018,0.402,0.018
			c0.21,0,0.314,0.07,0.314,0.21c0,0.07-0.023,0.356-0.069,0.857c-0.048,0.502-0.07,1.267-0.07,2.293
			c0,0.443-0.082,0.665-0.245,0.665c-0.117,0-0.188-0.035-0.21-0.105c-0.023-0.069-0.047-0.163-0.07-0.279
			c-0.023-0.187-0.082-0.438-0.175-0.753c-0.094-0.315-0.187-0.554-0.28-0.718c-0.047-0.093-0.151-0.221-0.314-0.385
			c-0.164-0.163-0.402-0.326-0.718-0.49c-0.314-0.163-0.712-0.303-1.189-0.42c-0.479-0.116-1.068-0.175-1.768-0.175
			c-1.12,0-2.083,0.274-2.888,0.822c-0.806,0.549-1.208,1.348-1.208,2.397c0,0.468,0.064,0.898,0.192,1.295
			c0.128,0.397,0.351,0.788,0.665,1.173c0.315,0.385,0.724,0.782,1.226,1.19c0.501,0.408,1.138,0.869,1.907,1.382l0.875,0.596
			c0.933,0.63,1.721,1.242,2.362,1.837s1.161,1.179,1.558,1.75c0.396,0.572,0.683,1.155,0.857,1.75s0.263,1.208,0.263,1.838
			c0,0.887-0.204,1.773-0.612,2.66s-1.161,1.691-2.258,2.415c-0.653,0.42-1.424,0.699-2.31,0.84c-0.888,0.14-1.75,0.21-2.59,0.21
			C173.943,267.765,173.173,267.706,172.356,267.59z"/>
	</g>
	<g id="Line_2_">
		<polyline fill-rule="evenodd" clip-rule="evenodd" fill="#292424" points="142.252,235.032 2.794,233.765 142.252,232.712 
			142.292,232.712 281.75,233.765 142.292,235.032 		"/>
	</g>
</g>
</svg>
